<svg width="24" height="24" viewBox="0 0 24 24" fill="none" xmlns="http://www.w3.org/2000/svg">
<path d="M19.859 7.39668L19.229 6.76663L19.5621 6.43349C19.8203 6.17526 19.8637 6.17235 20.1043 6.15632C20.265 6.14563 20.4852 6.13096 20.7956 6.05441C21.2583 5.94032 21.6715 5.69029 21.9905 5.33136C22.772 4.45208 22.7801 3.11943 22.0093 2.23152C21.1217 1.20899 19.542 1.13118 18.5661 2.10707C18.2571 2.41611 18.0408 2.8034 17.9406 3.22705C17.8715 3.51969 17.8533 3.73166 17.84 3.88644C17.8177 4.14505 17.8137 4.19165 17.5387 4.46661L17.2338 4.77158L16.6038 4.14154C16.0945 3.63233 15.2703 3.63219 14.7608 4.14154L4.14088 14.7615C3.6328 15.2697 3.6328 16.0963 4.14088 16.6044L4.7705 17.2341L4.46736 17.5372C4.19216 17.8124 4.14552 17.8165 3.88672 17.8387C3.73185 17.8521 3.51969 17.8703 3.22696 17.9395C2.14288 18.1956 1.37872 19.1874 1.41847 20.3131C1.46366 21.5939 2.51272 22.5817 3.77029 22.5817C4.87044 22.5817 5.80049 21.8307 6.05563 20.7957C6.13222 20.4851 6.14689 20.2649 6.15758 20.104C6.17361 19.8632 6.17652 19.8198 6.43494 19.5614L6.76635 19.2299L7.39597 19.8596C7.90527 20.3688 8.72952 20.3689 9.23886 19.8596L19.8589 9.23961C20.3682 8.73032 20.3682 7.90607 19.859 7.39668ZM18.2017 5.12952C18.915 4.41622 18.6817 4.16788 18.8531 3.44268C18.9132 3.18852 19.0432 2.95588 19.2291 2.76997C19.8124 2.18661 20.7627 2.22538 21.3014 2.8461C21.7644 3.37949 21.7594 4.18021 21.2897 4.70863C21.0973 4.92515 20.8489 5.07576 20.5712 5.14419C20.3407 5.20101 20.182 5.2116 20.042 5.22093C19.6466 5.24727 19.3724 5.29738 18.8991 5.77063L18.566 6.10377L17.8968 5.43454L18.2017 5.12952ZM5.77208 18.8984C5.29869 19.3719 5.24854 19.6462 5.22219 20.0417C5.21286 20.1818 5.20227 20.3406 5.14541 20.5713C5.07688 20.8492 4.92613 21.0979 4.70943 21.2905C4.18307 21.7584 3.37536 21.7621 2.84544 21.3021C2.54343 21.04 2.36933 20.677 2.35532 20.2801C2.33033 19.5729 2.81765 18.9996 3.44249 18.8518C4.16835 18.6804 4.4166 18.9138 5.13022 18.2002L5.43336 17.897L6.10344 18.5671L5.77208 18.8984ZM19.196 8.57666L8.576 19.1967C8.43332 19.3395 8.20185 19.3396 8.05893 19.1967L7.17763 18.3154C7.15813 18.283 7.13516 18.2526 7.10802 18.2254L5.77504 16.8924C5.74785 16.8652 5.71743 16.8422 5.68504 16.8227L4.80379 15.9415C4.66119 15.7989 4.66119 15.567 4.80379 15.4244L15.4237 4.80444C15.5666 4.66157 15.7979 4.66147 15.9408 4.80444L16.8307 5.69432C16.8487 5.72254 16.8697 5.7493 16.8943 5.77391C18.2754 7.14927 18.2219 7.11571 18.3055 7.16919L19.1959 8.05963C19.3386 8.20218 19.3386 8.43411 19.196 8.57666Z" fill="#99AF61"/>
<path d="M11.6484 9.61434L6.57238 14.6904C6.04621 15.2166 6.04616 16.0681 6.57238 16.5944L7.17257 17.1945C7.35566 17.3776 7.65243 17.3775 7.83552 17.1945C8.01857 17.0115 8.01857 16.7147 7.83552 16.5316L7.23533 15.9314C7.07563 15.7717 7.07549 15.513 7.23533 15.3533L12.3113 10.2773C12.4944 10.0942 12.4944 9.79743 12.3113 9.61434C12.1283 9.43129 11.8315 9.43129 11.6484 9.61434Z" fill="#99AF61"/>
<path d="M13.6825 7.5797L12.8687 8.3935C12.6857 8.57655 12.6857 8.87336 12.8687 9.05641C13.0518 9.23941 13.3486 9.2395 13.5317 9.05641L14.3454 8.24261C14.5285 8.05956 14.5285 7.76275 14.3454 7.5797C14.1623 7.39661 13.8655 7.39661 13.6825 7.5797Z" fill="#99AF61"/>
<path d="M3.76074 8.46143C4.01963 8.46143 4.22949 8.25156 4.22949 7.99268C4.22949 7.73379 4.01963 7.52393 3.76074 7.52393C3.50186 7.52393 3.29199 7.73379 3.29199 7.99268C3.29199 8.25156 3.50186 8.46143 3.76074 8.46143Z" fill="#99AF61"/>
<path d="M3.29199 13.6177C3.55088 13.6177 3.76074 13.4078 3.76074 13.1489C3.76074 12.89 3.55088 12.6802 3.29199 12.6802C3.03311 12.6802 2.82324 12.89 2.82324 13.1489C2.82324 13.4078 3.03311 13.6177 3.29199 13.6177Z" fill="#99AF61"/>
<path d="M18.7607 14.5552C19.0196 14.5552 19.2295 14.3453 19.2295 14.0864C19.2295 13.8275 19.0196 13.6177 18.7607 13.6177C18.5019 13.6177 18.292 13.8275 18.292 14.0864C18.292 14.3453 18.5019 14.5552 18.7607 14.5552Z" fill="#99AF61"/>
<path d="M11.7295 20.1802C11.9884 20.1802 12.1982 19.9703 12.1982 19.7114C12.1982 19.4525 11.9884 19.2427 11.7295 19.2427C11.4706 19.2427 11.2607 19.4525 11.2607 19.7114C11.2607 19.9703 11.4706 20.1802 11.7295 20.1802Z" fill="#99AF61"/>
<path d="M10.792 4.24268C11.0509 4.24268 11.2607 4.03281 11.2607 3.77393C11.2607 3.51504 11.0509 3.30518 10.792 3.30518C10.5331 3.30518 10.3232 3.51504 10.3232 3.77393C10.3232 4.03281 10.5331 4.24268 10.792 4.24268Z" fill="#99AF61"/>
<path d="M7.74512 8.46143C8.39129 8.46143 8.91699 7.93572 8.91699 7.28955C8.91699 6.64338 8.39129 6.11768 7.74512 6.11768C7.09895 6.11768 6.57324 6.64338 6.57324 7.28955C6.57324 7.93572 7.09895 8.46143 7.74512 8.46143ZM7.74512 7.05518C7.87435 7.05518 7.97949 7.16032 7.97949 7.28955C7.97949 7.41879 7.87435 7.52393 7.74512 7.52393C7.61588 7.52393 7.51074 7.41879 7.51074 7.28955C7.51074 7.16032 7.61588 7.05518 7.74512 7.05518Z" fill="#99AF61"/>
<path d="M21.1045 10.3364C20.4583 10.3364 19.9326 10.8621 19.9326 11.5083C19.9326 12.1545 20.4583 12.6802 21.1045 12.6802C21.7507 12.6802 22.2764 12.1545 22.2764 11.5083C22.2764 10.8621 21.7507 10.3364 21.1045 10.3364ZM21.1045 11.7427C20.9753 11.7427 20.8701 11.6375 20.8701 11.5083C20.8701 11.3791 20.9753 11.2739 21.1045 11.2739C21.2337 11.2739 21.3389 11.3791 21.3389 11.5083C21.3389 11.6375 21.2337 11.7427 21.1045 11.7427Z" fill="#99AF61"/>
<path d="M17.3545 16.8989C16.5791 16.8989 15.9482 17.5298 15.9482 18.3052C15.9482 19.0806 16.5791 19.7114 17.3545 19.7114C18.1299 19.7114 18.7607 19.0806 18.7607 18.3052C18.7607 17.5298 18.1299 16.8989 17.3545 16.8989ZM17.3545 18.7739C17.096 18.7739 16.8857 18.5636 16.8857 18.3052C16.8857 18.0467 17.096 17.8364 17.3545 17.8364C17.613 17.8364 17.8232 18.0467 17.8232 18.3052C17.8232 18.5636 17.613 18.7739 17.3545 18.7739Z" fill="#99AF61"/>
</svg>
