<svg width="24" height="24" viewBox="0 0 24 24" fill="none" xmlns="http://www.w3.org/2000/svg">
<path d="M6.52539 20.475C7.05039 21.225 7.95039 21.75 9.00039 21.75H12.7504H15.0004C16.6504 21.75 18.0004 20.4 18.0004 18.75V10.5" stroke="#99AF61" stroke-miterlimit="10" stroke-linecap="round" stroke-linejoin="round"/>
<path d="M19.875 18.75C18.825 18.75 18 17.925 18 16.875V13.125C18 12.075 18.825 11.25 19.875 11.25C20.925 11.25 21.75 12.075 21.75 13.125V16.875C21.75 17.925 20.925 18.75 19.875 18.75Z" stroke="#99AF61" stroke-miterlimit="10" stroke-linecap="round" stroke-linejoin="round"/>
<path d="M9.75 14.25V18.75" stroke="#99AF61" stroke-miterlimit="10" stroke-linecap="round" stroke-linejoin="round"/>
<path d="M14.25 14.25V18.75" stroke="#99AF61" stroke-miterlimit="10" stroke-linecap="round" stroke-linejoin="round"/>
<path d="M17.8497 4.875C16.9497 4.35 16.1997 4.425 15.4497 4.65C15.2247 4.425 14.9997 4.2 14.7747 3.975C14.7747 3.975 14.7747 3.975 14.6997 3.975C14.6247 3.9 14.4747 3.825 14.3247 3.75L14.2497 3.675C14.1747 3.6 14.0247 3.525 13.9497 3.525C13.8747 3.525 13.8747 3.45 13.7997 3.45C13.7247 3.375 13.5747 3.375 13.4997 3.3C13.4247 3.3 13.4247 3.225 13.3497 3.225C13.2747 3.225 13.1247 3.15 13.0497 3.15C12.9747 3.15 12.9747 3.15 12.8997 3.075C12.8247 3.075 12.6747 3 12.5997 3C12.5247 3 12.5247 3 12.4497 3C12.2997 3 12.1497 3 11.9247 3C11.6997 3 11.5497 3 11.3997 3.075C11.3247 3.075 11.3247 3.075 11.2497 3.075C11.0997 3.075 10.9497 3.15 10.8747 3.15C10.7997 3.15 10.7997 3.15 10.7247 3.15C10.3497 3.225 10.0497 3.375 9.74972 3.6C9.74972 3.6 9.74972 3.6 9.67472 3.6C9.07472 3.975 8.54972 4.425 8.17472 5.025C7.49972 4.575 6.67472 4.35 5.77472 4.5C4.42472 4.8 3.22472 5.925 3.07472 7.35C2.84972 8.7 3.52472 9.975 4.49972 10.65V14.025C4.49972 15.45 3.97472 16.875 2.92472 17.85C2.32472 18.375 2.02472 19.275 2.32472 20.175C2.62472 21.15 3.52472 21.675 4.57472 21.675H4.64972C5.77472 21.75 6.74972 20.775 6.74972 19.65V12.075C6.74972 11.625 7.04972 11.175 7.49972 11.025C8.17472 10.8 8.84972 10.875 9.44972 11.25C9.59972 11.4 9.82472 11.475 9.97472 11.55C9.97472 11.55 10.0497 11.55 10.0497 11.625C10.4247 11.775 10.7997 11.925 11.1747 12C11.2497 12 11.2497 12 11.3247 12C11.5497 12 11.6997 12.075 11.9247 12.075C12.0747 12.075 12.2247 12.075 12.4497 12.075C12.5247 12.075 12.5247 12.075 12.5997 12.075C12.6747 12.075 12.8247 12.075 12.8997 12C12.9747 12 12.9747 12 13.0497 11.925C13.1247 11.925 13.2747 11.85 13.3497 11.85C13.4247 11.85 13.4247 11.775 13.4997 11.775C13.5747 11.7 13.7247 11.7 13.7997 11.625C13.8747 11.625 13.8747 11.55 13.9497 11.55C14.0247 11.475 14.1747 11.475 14.2497 11.4L14.3247 11.325C14.4747 11.25 14.5497 11.175 14.6997 11.1C14.6997 11.1 14.6997 11.1 14.7747 11.1C14.9997 10.875 15.2247 10.65 15.4497 10.425C15.7497 10.5 16.1247 10.575 16.4247 10.575C18.1497 10.575 19.4997 9.15 19.4247 7.425C19.4247 6.3 18.7497 5.4 17.8497 4.875Z" stroke="#99AF61" stroke-miterlimit="10" stroke-linecap="round" stroke-linejoin="round"/>
</svg>
