<svg width="40" height="41" viewBox="0 0 40 41" fill="none" xmlns="http://www.w3.org/2000/svg">
<path d="M35.5063 29.0562C34.9562 29.0562 34.0438 29.2437 34.0125 28.4312C34.0125 28.2654 34.0784 28.1064 34.1956 27.9892C34.3128 27.872 34.4717 27.8062 34.6375 27.8062H35.5063C35.8693 27.8062 36.2174 27.6619 36.4741 27.4053C36.7308 27.1486 36.875 26.8004 36.875 26.4374V5.43115C36.875 5.06756 36.731 4.71877 36.4745 4.46108C36.218 4.2034 35.8698 4.05781 35.5063 4.05615H4.49375C4.13016 4.05781 3.78203 4.2034 3.52552 4.46108C3.269 4.71877 3.125 5.06756 3.125 5.43115V26.4374C3.125 26.8004 3.26921 27.1486 3.5259 27.4053C3.78259 27.6619 4.13073 27.8062 4.49375 27.8062H24.1562C24.322 27.8062 24.481 27.872 24.5982 27.9892C24.7154 28.1064 24.7812 28.2654 24.7812 28.4312C24.7812 28.5969 24.7154 28.7559 24.5982 28.8731C24.481 28.9903 24.322 29.0562 24.1562 29.0562H4.49375C3.79972 29.0545 3.13459 28.7781 2.64384 28.2873C2.15308 27.7966 1.87665 27.1314 1.875 26.4374V5.43115C1.875 4.73604 2.1507 4.06931 2.64163 3.5772C3.13257 3.0851 3.79864 2.80781 4.49375 2.80615H35.5063C36.2014 2.80781 36.8674 3.0851 37.3584 3.5772C37.8493 4.06931 38.125 4.73604 38.125 5.43115V26.4374C38.1233 27.1314 37.8469 27.7966 37.3562 28.2873C36.8654 28.7781 36.2003 29.0545 35.5063 29.0562Z" fill="#CCE981"/>
<path d="M16.6313 14.0312H23.3688C23.5346 14.0312 23.6936 13.9654 23.8108 13.8482C23.928 13.731 23.9938 13.572 23.9938 13.4062V6.125C23.9938 5.95924 23.928 5.80027 23.8108 5.68306C23.6936 5.56585 23.5346 5.5 23.3688 5.5H16.6313C16.4656 5.5 16.3066 5.56585 16.1894 5.68306C16.0722 5.80027 16.0063 5.95924 16.0063 6.125V13.4062C16.0063 13.572 16.0722 13.731 16.1894 13.8482C16.3066 13.9654 16.4656 14.0312 16.6313 14.0312ZM17.2563 6.74375H22.7438V12.7812H17.2563V6.74375Z" fill="#CCE981"/>
<path d="M7.5 16.5562H32.2125C32.3783 16.5562 32.5372 16.4903 32.6544 16.3731C32.7717 16.2559 32.8375 16.0969 32.8375 15.9312C32.8375 15.7654 32.7717 15.6064 32.6544 15.4892C32.5372 15.372 32.3783 15.3062 32.2125 15.3062H7.5C7.33424 15.3062 7.17527 15.372 7.05806 15.4892C6.94085 15.6064 6.875 15.7654 6.875 15.9312C6.875 16.0969 6.94085 16.2559 7.05806 16.3731C7.17527 16.4903 7.33424 16.5562 7.5 16.5562Z" fill="#CCE981"/>
<path d="M7.5 20.3188H32.2125C32.3783 20.3188 32.5372 20.253 32.6544 20.1358C32.7717 20.0186 32.8375 19.8596 32.8375 19.6938C32.8375 19.5281 32.7717 19.3691 32.6544 19.2519C32.5372 19.1347 32.3783 19.0688 32.2125 19.0688H7.5C7.33424 19.0688 7.17527 19.1347 7.05806 19.2519C6.94085 19.3691 6.875 19.5281 6.875 19.6938C6.875 19.8596 6.94085 20.0186 7.05806 20.1358C7.17527 20.253 7.33424 20.3188 7.5 20.3188Z" fill="#CCE981"/>
<path d="M20 22.8247H7.5C7.33424 22.8247 7.17527 22.8906 7.05806 23.0078C6.94085 23.125 6.875 23.2839 6.875 23.4497C6.875 23.6155 6.94085 23.7744 7.05806 23.8916C7.17527 24.0089 7.33424 24.0747 7.5 24.0747H20C20.1658 24.0747 20.3247 24.0089 20.4419 23.8916C20.5592 23.7744 20.625 23.6155 20.625 23.4497C20.625 23.2839 20.5592 23.125 20.4419 23.0078C20.3247 22.8906 20.1658 22.8247 20 22.8247Z" fill="#CCE981"/>
<path d="M34.6062 26.8997C33.8812 26.131 34.325 25.0247 33.5437 24.2497C32.7625 23.4747 31.6687 23.9122 30.8937 23.1872C29.4125 21.9872 28.6937 22.6372 27.3812 23.5247C26.7 23.756 25.8375 23.6435 25.25 24.2497C24.6625 24.856 24.7563 25.6997 24.525 26.3747C24.2938 27.0497 23.5312 27.5247 23.5312 28.3935C23.5312 29.2622 24.2063 29.781 24.525 30.4122C24.8438 31.0435 24.65 31.9497 25.25 32.5372C25.5247 32.7935 25.8676 32.965 26.2375 33.031V37.5685C26.2377 37.6886 26.2724 37.8061 26.3376 37.907C26.4028 38.0079 26.4957 38.0878 26.6052 38.1373C26.7146 38.1867 26.836 38.2036 26.9548 38.1858C27.0736 38.1681 27.1848 38.1165 27.275 38.0372L29.4 36.1622L31.5187 38.0372C31.609 38.1165 31.7201 38.1681 31.8389 38.1858C31.9577 38.2036 32.0791 38.1867 32.1886 38.1373C32.298 38.0878 32.3909 38.0079 32.4561 37.907C32.5213 37.8061 32.5561 37.6886 32.5562 37.5685V33.031C32.9261 32.965 33.269 32.7935 33.5437 32.5372C34.1687 31.9497 34.0375 31.0872 34.2688 30.4122C34.5 29.7372 35.2625 29.2622 35.2625 28.3935C35.217 27.8362 34.9859 27.3103 34.6062 26.8997ZM29.8062 34.8747C29.6926 34.7762 29.5473 34.722 29.3969 34.722C29.2465 34.722 29.1011 34.7762 28.9875 34.8747L27.5 36.1872V33.3247C29.1312 34.5747 29.6875 34.5747 31.3187 33.3247V36.1872L29.8062 34.8747ZM33.6062 29.1372C33.1963 29.6255 32.9455 30.2274 32.8875 30.8622C32.8817 31.1406 32.8019 31.4124 32.6562 31.6497C32.2687 31.931 31.4062 31.8622 30.9375 32.106C30.4687 32.3497 29.8875 32.9435 29.375 32.9997C29.0939 32.9318 28.8354 32.7918 28.625 32.5935C28.136 32.1858 27.5342 31.9372 26.9 31.881C26.6224 31.8701 26.3519 31.7907 26.1125 31.6497C25.8312 31.2622 25.9 30.3997 25.6562 29.9247C25.4125 29.4497 24.825 28.8747 24.7562 28.3872C24.8241 28.1062 24.9642 27.8477 25.1625 27.6372C25.5724 27.149 25.8232 26.5471 25.8812 25.9122C25.8871 25.6339 25.9669 25.3621 26.1125 25.1247C26.5 24.8435 27.3625 24.9122 27.8312 24.6747C28.3 24.4372 28.8812 23.8372 29.375 23.7747C29.6536 23.8442 29.9098 23.9841 30.1187 24.181C30.6186 24.5878 31.232 24.8301 31.875 24.8747C32.1526 24.8856 32.4231 24.965 32.6625 25.106C32.95 25.4935 32.875 26.356 33.1187 26.831C33.3625 27.306 33.95 27.881 34.0187 28.3685C33.9532 28.6591 33.8107 28.9268 33.6062 29.1435V29.1372Z" fill="#CCE981"/>
</svg>
