<svg width="40" height="41" viewBox="0 0 40 41" fill="none" xmlns="http://www.w3.org/2000/svg">
<g clip-path="url(#clip0_220895_2680)">
<path fill-rule="evenodd" clip-rule="evenodd" d="M20 40.5C19.9219 40.5 19.8438 40.5 19.7656 40.4219L18.75 39.9531C16.4844 38.8594 13.5156 37.2969 11.0156 35.1875C8.35938 33 6.5625 30.5781 5.54688 27.8438C4.60938 25.4219 4.14062 22.7656 4.0625 19.6406C3.98438 17.6094 3.98438 15.5 4.0625 13.3906C4.0625 12.375 4.0625 11.2812 4.0625 10.2656V8.07812C4.0625 7.76562 4.29688 7.53125 4.60938 7.53125H6.79688C7.89062 7.53125 9.29688 7.21875 10.5469 6.82812C13.4375 5.89062 16.0156 4.40625 18.0469 2.29688L19.6094 0.65625C19.6875 0.578125 19.8438 0.5 20 0.5C20.1562 0.5 20.3125 0.578125 20.3906 0.65625L21.9531 2.29688C24.0625 4.40625 26.5625 5.89062 29.4531 6.82812C30.5469 7.14062 32.0312 7.53125 33.2031 7.53125H35.3906C35.7031 7.53125 35.9375 7.76562 35.9375 8.07812V10.2656C35.9375 11.2812 35.9375 12.375 35.9375 13.3906C36.0156 15.5 36.0156 17.6094 35.9375 19.6406C35.7812 22.1406 35.5469 25.1094 34.5312 27.7656V27.8438C32.0312 33.9375 26.4062 37.375 21.1719 39.9531L20.2344 40.4219C20.1562 40.5 20.0781 40.5 20 40.5ZM19.2188 39.0156L20 39.3281L20.7031 39.0156C25.7031 36.5156 31.1719 33.2344 33.5156 27.375C34.4531 24.875 34.6875 22.0625 34.8438 19.6406C34.9219 17.6094 34.9219 15.4219 34.8438 13.3906C34.8438 12.375 34.8438 11.2812 34.8438 10.2656V8.625H33.2031C31.875 8.625 30.3125 8.23438 29.1406 7.92188C26.0938 6.90625 23.3594 5.26562 21.1719 3.07812L20 1.82812L18.8281 3.07812C16.6406 5.26562 13.9844 6.90625 10.8594 7.92188C9.53125 8.23438 7.96875 8.625 6.79688 8.625H5.15625V10.2656C5.15625 11.2812 5.15625 12.375 5.15625 13.3906C5.07812 15.4219 5.07812 17.6094 5.15625 19.5625C5.15625 19.6406 5.15625 19.6406 5.15625 19.6406C5.23438 22.6094 5.70312 25.1875 6.5625 27.375C8.75 33.0781 13.9844 36.3594 19.2188 39.0156Z" fill="#CCE981"/>
<path fill-rule="evenodd" clip-rule="evenodd" d="M20.0001 38C19.9219 38 19.8438 38 19.7657 37.9219C6.09381 31.2812 6.17193 25.0312 6.25006 13.7031C6.25006 12.6094 6.25006 11.4375 6.25006 10.2656C6.25006 9.95312 6.48443 9.71875 6.79693 9.71875C6.79693 9.71875 8.59381 9.71875 11.0157 8.9375C13.2813 8.3125 16.6407 6.82812 19.6094 3.78125C19.7657 3.70312 19.8438 3.625 20.0001 3.625C20.1563 3.625 20.3126 3.70312 20.3907 3.78125C26.1719 9.64062 33.1251 9.71875 33.2032 9.71875C33.5157 9.71875 33.7501 9.95312 33.7501 10.2656C33.7501 11.4375 33.7501 12.6094 33.8282 13.7031C33.9063 25.0312 33.9844 31.2812 20.2344 37.9219C20.1563 38 20.0782 38 20.0001 38ZM7.34381 10.8125C7.34381 11.8281 7.34381 12.7656 7.34381 13.7031C7.26568 24.875 7.18756 30.5781 20.0001 36.8281C32.8907 30.5781 32.8126 24.875 32.7344 13.7031C32.6563 12.7656 32.6563 11.8281 32.6563 10.8125C31.9532 10.7344 30.5469 10.5781 28.7501 10.0312C26.4063 9.32812 23.1251 7.92188 20.0001 4.95312C16.9532 7.92188 13.5938 9.32812 11.3282 10.0312C9.53131 10.5781 8.12506 10.7344 7.34381 10.8125Z" fill="#CCE981"/>
<path fill-rule="evenodd" clip-rule="evenodd" d="M20 29.1719C17.6562 29.1719 15.4688 28.2344 13.9062 26.6719C12.2656 25.0312 11.3281 22.8438 11.3281 20.5C11.3281 15.7344 15.2344 11.8281 20 11.8281C22.3438 11.8281 24.5312 12.7656 26.1719 14.4062C27.8125 16.0469 28.6719 18.2344 28.6719 20.5C28.6719 25.2656 24.7656 29.1719 20 29.1719ZM20 12.9219C15.8594 12.9219 12.4219 16.3594 12.4219 20.5C12.4219 24.7188 15.7812 28.0781 20 28.0781C24.2188 28.0781 27.5781 24.6406 27.5781 20.5C27.5781 16.3594 24.2188 12.9219 20 12.9219Z" fill="#CCE981"/>
<path fill-rule="evenodd" clip-rule="evenodd" d="M17.5 24.25C17.5 24.25 17.4219 24.25 17.3438 24.25C17.2656 24.1719 17.1094 24.0938 17.0312 23.9375L14.5312 19.6406C14.375 19.3281 14.4531 19.0156 14.7656 18.8594L16.7969 17.6875C16.875 17.6094 17.0312 17.6094 17.1875 17.6094C17.3438 17.6875 17.4219 17.7656 17.5 17.9219L18.5938 19.7188L23.5938 16.8281C23.6719 16.75 23.8281 16.75 23.9844 16.75C24.1406 16.8281 24.2188 16.9062 24.2969 17.0625L25.4688 19.0938C25.625 19.3281 25.5469 19.6406 25.3125 19.7969L17.8125 24.1719C17.7344 24.25 17.5781 24.25 17.5 24.25ZM15.7812 19.5625L17.7344 22.9219L24.2969 19.0938L23.6719 18.0781L18.6719 20.9688C18.5156 21.0469 18.3594 21.0469 18.2031 21.0469C18.125 20.9688 17.9688 20.8906 17.8906 20.7344L16.875 18.9375L15.7812 19.5625Z" fill="#CCE981"/>
</g>
<defs>
<clipPath id="clip0_220895_2680">
<rect width="40" height="40" fill="white" transform="translate(0 0.5)"/>
</clipPath>
</defs>
</svg>
