<svg width="40" height="41" viewBox="0 0 40 41" fill="none" xmlns="http://www.w3.org/2000/svg">
<path d="M38.75 5.5H10C9.83422 5.5 9.67523 5.56585 9.55805 5.68305C9.44086 5.80027 9.375 5.95924 9.375 6.125V16.4734L7.24141 18.625H1.25C1.08424 18.625 0.925266 18.6909 0.808055 18.808C0.690848 18.9252 0.625 19.0842 0.625 19.25V29.875C0.625 30.0408 0.690848 30.1998 0.808055 30.317C0.925266 30.4341 1.08424 30.5 1.25 30.5H7.24141L8.30781 31.5672C8.42516 31.6843 8.58422 31.7501 8.75 31.75H9.375V34.875C9.375 35.0408 9.44086 35.1998 9.55805 35.317C9.67523 35.4341 9.83422 35.5 10 35.5H38.75C38.9158 35.5 39.0748 35.4341 39.192 35.317C39.3091 35.1998 39.375 35.0408 39.375 34.875V6.125C39.375 5.95924 39.3091 5.80027 39.192 5.68305C39.0748 5.56585 38.9158 5.5 38.75 5.5ZM20.625 6.75H28.125V17.5477L24.6852 15.582C24.5906 15.5283 24.4837 15.5 24.375 15.5C24.2663 15.5 24.1594 15.5283 24.0648 15.582L20.625 17.5477V6.75ZM1.875 19.875H7.5C7.6658 19.8751 7.82484 19.8093 7.94219 19.6922L9.375 18.2555V19.5984L7.24141 21.75H1.875V19.875ZM9.00859 30.5L7.94219 29.4328C7.82484 29.3157 7.6658 29.2499 7.5 29.25H1.875V23H7.5C7.6658 23.0001 7.82484 22.9343 7.94219 22.8172L12.1094 18.6008C12.2266 18.4837 12.3855 18.4179 12.5512 18.4179C12.7169 18.4179 12.8758 18.4837 12.993 18.6008C13.0511 18.6587 13.0973 18.7274 13.1287 18.8031C13.1602 18.8788 13.1765 18.96 13.1766 19.042C13.1766 19.1241 13.1605 19.2052 13.1291 19.281C13.0978 19.3568 13.0518 19.4256 12.9938 19.4836C12.9898 19.4883 12.9859 19.4922 12.982 19.4961L11.8453 20.6945C11.7611 20.7831 11.7048 20.8945 11.6832 21.0148C11.6616 21.1352 11.6759 21.2592 11.7241 21.3716C11.7723 21.4839 11.8525 21.5796 11.9545 21.6469C12.0566 21.7141 12.1762 21.75 12.2984 21.75H19.375C19.5408 21.75 19.6998 21.8159 19.817 21.933C19.9341 22.0502 20 22.2092 20 22.375C20 22.5408 19.9341 22.6998 19.817 22.817C19.6998 22.9341 19.5408 23 19.375 23H14.375C14.2092 23 14.0502 23.0659 13.933 23.183C13.8159 23.3002 13.75 23.4592 13.75 23.625C13.75 23.7908 13.8159 23.9498 13.933 24.067C14.0502 24.1841 14.2092 24.25 14.375 24.25H21.875C22.0408 24.25 22.1998 24.3159 22.317 24.433C22.4341 24.5502 22.5 24.7092 22.5 24.875C22.5 25.0408 22.4341 25.1998 22.317 25.317C22.1998 25.4341 22.0408 25.5 21.875 25.5H14.375C14.2092 25.5 14.0502 25.5659 13.933 25.683C13.8159 25.8002 13.75 25.9592 13.75 26.125C13.75 26.2908 13.8159 26.4498 13.933 26.567C14.0502 26.6841 14.2092 26.75 14.375 26.75H19.375C19.5408 26.75 19.6998 26.8159 19.817 26.933C19.9341 27.0502 20 27.2092 20 27.375C20 27.5408 19.9341 27.6998 19.817 27.817C19.6998 27.9341 19.5408 28 19.375 28H14.375C14.2092 28 14.0502 28.0659 13.933 28.183C13.8159 28.3002 13.75 28.4592 13.75 28.625C13.75 28.7908 13.8159 28.9498 13.933 29.067C14.0502 29.1841 14.2092 29.25 14.375 29.25H18.125C18.2908 29.25 18.4498 29.3159 18.567 29.433C18.6841 29.5502 18.75 29.7092 18.75 29.875C18.75 30.0408 18.6841 30.1998 18.567 30.317C18.4498 30.4341 18.2908 30.5 18.125 30.5H9.00859ZM38.125 34.25H10.625V31.75H18.125C18.4309 31.7501 18.7322 31.6753 19.0026 31.5322C19.2729 31.389 19.5041 31.1819 19.676 30.9288C19.848 30.6758 19.9553 30.3845 19.9888 30.0805C20.0222 29.7764 19.9808 29.4688 19.868 29.1844C20.1167 29.1165 20.3489 28.998 20.5498 28.8364C20.7508 28.6748 20.9163 28.4734 21.0359 28.245C21.1555 28.0166 21.2268 27.7659 21.2452 27.5087C21.2637 27.2514 21.2288 26.9932 21.143 26.75H21.875C22.3723 26.75 22.8492 26.5524 23.2009 26.2009C23.5524 25.8492 23.75 25.3723 23.75 24.875C23.75 24.3777 23.5524 23.9008 23.2009 23.5491C22.8492 23.1976 22.3723 23 21.875 23H21.143C21.2428 22.7172 21.2734 22.4145 21.2322 22.1174C21.1909 21.8203 21.079 21.5375 20.9058 21.2926C20.7326 21.0477 20.5032 20.8479 20.2369 20.71C19.9705 20.5721 19.6749 20.5001 19.375 20.5H13.7523L13.8828 20.3625C14.232 20.0104 14.4275 19.5342 14.4265 19.0384C14.4255 18.5424 14.228 18.0671 13.8773 17.7164C13.5246 17.365 13.0467 17.168 12.5488 17.1687C12.0509 17.1695 11.5736 17.3679 11.2219 17.7203L10.625 18.3273V6.75H19.375V18.625C19.3749 18.7345 19.4037 18.8421 19.4583 18.937C19.5129 19.032 19.5915 19.1109 19.6862 19.1659C19.7809 19.2209 19.8884 19.25 19.9979 19.2504C20.1074 19.2507 20.2151 19.2223 20.3102 19.168L24.375 16.8445L28.4398 19.168C28.5349 19.2223 28.6426 19.2507 28.7521 19.2504C28.8616 19.25 28.9691 19.2209 29.0638 19.1659C29.1585 19.1109 29.2371 19.032 29.2917 18.937C29.3463 18.8421 29.3751 18.7345 29.375 18.625V6.75H38.125V34.25Z" fill="#CCE981"/>
<path d="M28.125 27.375C27.9592 27.375 27.8002 27.4409 27.683 27.558C27.5659 27.6752 27.5 27.8342 27.5 28V32.375C27.5 32.5408 27.5659 32.6998 27.683 32.817C27.8002 32.9341 27.9592 33 28.125 33H36.25C36.4158 33 36.5748 32.9341 36.692 32.817C36.8091 32.6998 36.875 32.5408 36.875 32.375V28C36.875 27.8342 36.8091 27.6752 36.692 27.558C36.5748 27.4409 36.4158 27.375 36.25 27.375H28.125ZM35.625 31.75H28.75V28.625H35.625V31.75Z" fill="#CCE981"/>
</svg>
