<svg width="40" height="41" viewBox="0 0 40 41" fill="none" xmlns="http://www.w3.org/2000/svg">
<path d="M33.9872 14.7005C33.8647 14.6852 33.7405 14.6945 33.6218 14.7278C33.503 14.7612 33.3921 14.8179 33.2955 14.8946L25.8157 20.7001L24.2067 19.4466L18.3491 14.9015C18.251 14.8249 18.1388 14.7684 18.0188 14.7352C17.8988 14.7021 17.7734 14.6929 17.6499 14.7083C17.5264 14.7237 17.4071 14.7633 17.2989 14.8248C17.1907 14.8864 17.0958 14.9687 17.0194 15.067C16.9431 15.1654 16.887 15.2778 16.8542 15.3979C16.8214 15.518 16.8126 15.6433 16.8283 15.7668C16.8441 15.8903 16.884 16.0094 16.9459 16.1175C17.0078 16.2255 17.0904 16.3202 17.189 16.3962L22.1462 20.2476L17.1508 24.6492C17.0552 24.7295 16.9767 24.8283 16.92 24.9395C16.8632 25.0508 16.8295 25.1724 16.8207 25.297C16.8119 25.4216 16.8282 25.5467 16.8687 25.6648C16.9092 25.783 16.9731 25.8918 17.0565 25.9847L17.0574 25.9858C17.1465 26.0858 17.2555 26.166 17.3775 26.2212C17.4995 26.2764 17.6318 26.3054 17.7657 26.3063C17.9988 26.3083 18.2239 26.2218 18.3957 26.0642L23.6638 21.4218L25.2294 22.6359C25.3963 22.7674 25.6029 22.8382 25.8154 22.8365C26.0265 22.8369 26.2317 22.767 26.3988 22.638L28.0209 21.3812L33.2339 26.0561C33.4058 26.2144 33.6315 26.3014 33.8651 26.2993C33.9988 26.2994 34.131 26.2715 34.2531 26.2174C34.3753 26.1632 34.4847 26.0839 34.5743 25.9848C34.7406 25.7972 34.8261 25.5516 34.8124 25.3014C34.7986 25.0511 34.6867 24.8164 34.5008 24.6482L29.5447 20.2009L34.4555 16.3895C34.5551 16.3129 34.6384 16.2173 34.7005 16.1081C34.7626 15.9989 34.8022 15.8783 34.817 15.7536C34.8323 15.6312 34.823 15.507 34.7897 15.3883C34.7564 15.2695 34.6998 15.1586 34.6231 15.062C34.5465 14.9624 34.4509 14.8791 34.3416 14.817C34.2324 14.7549 34.1119 14.7153 33.9872 14.7005Z" fill="#CCE981"/>
<path d="M9.59279 19.5918H4.18849C3.94761 19.5918 3.71661 19.6875 3.54628 19.8578C3.37596 20.0281 3.28027 20.2591 3.28027 20.5C3.28027 20.7409 3.37596 20.9719 3.54628 21.1422C3.71661 21.3125 3.94761 21.4082 4.18849 21.4082H9.59279C9.83366 21.4082 10.0647 21.3125 10.235 21.1422C10.4053 20.9719 10.501 20.7409 10.501 20.5C10.501 20.2591 10.4053 20.0281 10.235 19.8578C10.0647 19.6875 9.83366 19.5918 9.59279 19.5918Z" fill="#CCE981"/>
<path d="M9.59271 15.3457H1.44872C1.32915 15.346 1.2108 15.3698 1.10043 15.4158C0.990066 15.4618 0.889849 15.5291 0.805508 15.6139C0.721167 15.6987 0.654355 15.7992 0.608889 15.9098C0.563423 16.0204 0.540194 16.1389 0.540531 16.2584C0.544768 16.4976 0.641951 16.7257 0.811484 16.8944C0.981018 17.0631 1.20958 17.1591 1.44872 17.1622H9.59271C9.83359 17.1622 10.0646 17.0665 10.2349 16.8962C10.4053 16.7258 10.5009 16.4948 10.5009 16.2539C10.5009 16.0131 10.4053 15.7821 10.2349 15.6117C10.0646 15.4414 9.83359 15.3457 9.59271 15.3457Z" fill="#CCE981"/>
<path d="M9.59301 23.8379H6.03518C5.79431 23.8379 5.56329 23.9336 5.39297 24.1039C5.22264 24.2742 5.12695 24.5052 5.12695 24.7461C5.12695 24.987 5.22264 25.218 5.39297 25.3883C5.56329 25.5587 5.79431 25.6544 6.03518 25.6544H9.593C9.83387 25.6544 10.0649 25.5587 10.2352 25.3883C10.4055 25.218 10.5012 24.987 10.5012 24.7461C10.5012 24.5052 10.4055 24.2742 10.2352 24.1039C10.0649 23.9336 9.83389 23.8379 9.59301 23.8379Z" fill="#CCE981"/>
<path d="M36.7538 10.4385H14.8882C14.1709 10.4393 13.4832 10.7246 12.976 11.2318C12.4687 11.739 12.1834 12.4267 12.1826 13.144V27.8565C12.1834 28.5738 12.4688 29.2615 12.976 29.7687C13.4832 30.2759 14.1709 30.5612 14.8882 30.562H36.7538C37.4711 30.5612 38.1588 30.2759 38.666 29.7687C39.1732 29.2615 39.4586 28.5738 39.4594 27.8565V13.144C39.4586 12.4267 39.1733 11.739 38.666 11.2318C38.1588 10.7246 37.4712 10.4393 36.7538 10.4385ZM37.9582 27.8565C37.9578 28.1758 37.8308 28.4819 37.605 28.7077C37.3793 28.9335 37.0731 29.0605 36.7538 29.0608H14.8882C14.5689 29.0605 14.2627 28.9335 14.037 28.7077C13.8112 28.4819 13.6842 28.1758 13.6838 27.8565V13.144C13.6842 12.8247 13.8112 12.5186 14.0369 12.2928C14.2627 12.067 14.5689 11.94 14.8882 11.9397H36.7538C37.0732 11.94 37.3793 12.067 37.6051 12.2928C37.8308 12.5186 37.9578 12.8247 37.9582 13.144V27.8565Z" fill="#CCE981"/>
</svg>
