<svg width="24" height="25" viewBox="0 0 24 25" fill="none" xmlns="http://www.w3.org/2000/svg">
<path d="M20.3355 10.5678C20.3093 10.5348 20.6285 10.8564 15.144 5.37165C14.9765 5.20417 14.7102 5.18795 14.5236 5.33396C3.00038 14.3527 3.70439 13.7864 3.64172 13.8802C3.58955 13.958 3.5625 14.0519 3.5625 14.1406V19.7656C3.5625 20.0245 3.77236 20.2344 4.03125 20.2344H5.96531C6.1792 20.2344 6.36595 20.0896 6.4193 19.8825C6.57905 19.2617 7.13911 18.8281 7.78125 18.8281C8.42339 18.8281 8.98345 19.2617 9.1432 19.8825C9.19655 20.0896 9.3833 20.2344 9.59719 20.2344H19.9688C20.2276 20.2344 20.4375 20.0245 20.4375 19.7656V14.6094C20.4375 14.3506 20.2276 14.1406 19.9688 14.1406C19.7103 14.1406 19.5 13.9304 19.5 13.6719C19.5 13.4134 19.7103 13.2031 19.9688 13.2031C20.2276 13.2031 20.4375 12.9932 20.4375 12.7344V10.8596C20.4375 10.7577 20.4025 10.6523 20.3355 10.5678ZM14.7745 6.32809L19.0221 10.5757L5.89317 13.2787L14.7745 6.32809ZM19.5 12.3459C18.9543 12.5394 18.5625 13.0608 18.5625 13.6719C18.5625 14.283 18.9543 14.8044 19.5 14.9978V19.2969H9.93019C9.56302 18.4535 8.72531 17.8906 7.78125 17.8906C6.83719 17.8906 5.99948 18.4535 5.63231 19.2969H4.5V14.5227L19.5 11.4345V12.3459Z" fill="#99AF61"/>
<path d="M15.2812 18.3594C16.0567 18.3594 16.6875 17.7285 16.6875 16.9531C16.6875 16.1777 16.0567 15.5469 15.2812 15.5469C14.5058 15.5469 13.875 16.1777 13.875 16.9531C13.875 17.7285 14.5058 18.3594 15.2812 18.3594ZM15.2812 16.4844C15.5397 16.4844 15.75 16.6947 15.75 16.9531C15.75 17.2116 15.5397 17.4219 15.2812 17.4219C15.0228 17.4219 14.8125 17.2116 14.8125 16.9531C14.8125 16.6947 15.0228 16.4844 15.2812 16.4844Z" fill="#99AF61"/>
<path d="M10.5938 16.4844C11.1107 16.4844 11.5312 16.0638 11.5312 15.5469C11.5312 15.0299 11.1107 14.6094 10.5938 14.6094C10.0768 14.6094 9.65625 15.0299 9.65625 15.5469C9.65625 16.0638 10.0768 16.4844 10.5938 16.4844Z" fill="#99AF61"/>
<path d="M14.8125 9.92188C15.3294 9.92188 15.75 9.50131 15.75 8.98438C15.75 8.46744 15.3294 8.04688 14.8125 8.04688C14.2956 8.04688 13.875 8.46744 13.875 8.98438C13.875 9.50131 14.2956 9.92188 14.8125 9.92188Z" fill="#99AF61"/>
<path d="M4.03125 9.92188C4.80666 9.92188 5.4375 9.29103 5.4375 8.51562C5.4375 7.74022 4.80666 7.10938 4.03125 7.10938C3.25584 7.10938 2.625 7.74022 2.625 8.51562C2.625 9.29103 3.25584 9.92188 4.03125 9.92188ZM4.03125 8.04688C4.28972 8.04688 4.5 8.25716 4.5 8.51562C4.5 8.77409 4.28972 8.98438 4.03125 8.98438C3.77278 8.98438 3.5625 8.77409 3.5625 8.51562C3.5625 8.25716 3.77278 8.04688 4.03125 8.04688Z" fill="#99AF61"/>
<path d="M19.5 2.42188C18.4661 2.42188 17.625 3.263 17.625 4.29688C17.625 5.33075 18.4661 6.17188 19.5 6.17188C20.5339 6.17188 21.375 5.33075 21.375 4.29688C21.375 3.263 20.5339 2.42188 19.5 2.42188ZM19.5 5.23438C18.9831 5.23438 18.5625 4.81381 18.5625 4.29688C18.5625 3.77994 18.9831 3.35938 19.5 3.35938C20.0169 3.35938 20.4375 3.77994 20.4375 4.29688C20.4375 4.81381 20.0169 5.23438 19.5 5.23438Z" fill="#99AF61"/>
<path d="M4.03125 3.82812C4.29013 3.82812 4.5 3.61826 4.5 3.35938C4.5 3.10049 4.29013 2.89062 4.03125 2.89062C3.77237 2.89062 3.5625 3.10049 3.5625 3.35938C3.5625 3.61826 3.77237 3.82812 4.03125 3.82812Z" fill="#99AF61"/>
<path d="M8.25 5.70312C8.50888 5.70312 8.71875 5.49326 8.71875 5.23438C8.71875 4.97549 8.50888 4.76562 8.25 4.76562C7.99112 4.76562 7.78125 4.97549 7.78125 5.23438C7.78125 5.49326 7.99112 5.70312 8.25 5.70312Z" fill="#99AF61"/>
<path d="M21.375 8.98438C21.6339 8.98438 21.8438 8.77451 21.8438 8.51562C21.8438 8.25674 21.6339 8.04688 21.375 8.04688C21.1161 8.04688 20.9062 8.25674 20.9062 8.51562C20.9062 8.77451 21.1161 8.98438 21.375 8.98438Z" fill="#99AF61"/>
<path d="M17.1562 14.1406C17.4151 14.1406 17.625 13.9308 17.625 13.6719C17.625 13.413 17.4151 13.2031 17.1562 13.2031C16.8974 13.2031 16.6875 13.413 16.6875 13.6719C16.6875 13.9308 16.8974 14.1406 17.1562 14.1406Z" fill="#99AF61"/>
<path d="M12.4688 10.3906C12.7276 10.3906 12.9375 10.1808 12.9375 9.92188C12.9375 9.66299 12.7276 9.45312 12.4688 9.45312C12.2099 9.45312 12 9.66299 12 9.92188C12 10.1808 12.2099 10.3906 12.4688 10.3906Z" fill="#99AF61"/>
<path d="M18.0938 17.8906C18.3526 17.8906 18.5625 17.6808 18.5625 17.4219C18.5625 17.163 18.3526 16.9531 18.0938 16.9531C17.8349 16.9531 17.625 17.163 17.625 17.4219C17.625 17.6808 17.8349 17.8906 18.0938 17.8906Z" fill="#99AF61"/>
<path d="M12 18.3594C12.2589 18.3594 12.4688 18.1495 12.4688 17.8906C12.4688 17.6317 12.2589 17.4219 12 17.4219C11.7411 17.4219 11.5312 17.6317 11.5312 17.8906C11.5312 18.1495 11.7411 18.3594 12 18.3594Z" fill="#99AF61"/>
<path d="M16.6875 22.1094C16.9464 22.1094 17.1562 21.8995 17.1562 21.6406C17.1562 21.3817 16.9464 21.1719 16.6875 21.1719C16.4286 21.1719 16.2188 21.3817 16.2188 21.6406C16.2188 21.8995 16.4286 22.1094 16.6875 22.1094Z" fill="#99AF61"/>
<path d="M5.90625 22.5781C6.16513 22.5781 6.375 22.3683 6.375 22.1094C6.375 21.8505 6.16513 21.6406 5.90625 21.6406C5.64737 21.6406 5.4375 21.8505 5.4375 22.1094C5.4375 22.3683 5.64737 22.5781 5.90625 22.5781Z" fill="#99AF61"/>
<path d="M2.625 12.2656C2.88388 12.2656 3.09375 12.0558 3.09375 11.7969C3.09375 11.538 2.88388 11.3281 2.625 11.3281C2.36612 11.3281 2.15625 11.538 2.15625 11.7969C2.15625 12.0558 2.36612 12.2656 2.625 12.2656Z" fill="#99AF61"/>
<path d="M7.78125 16.9531C8.04013 16.9531 8.25 16.7433 8.25 16.4844C8.25 16.2255 8.04013 16.0156 7.78125 16.0156C7.52237 16.0156 7.3125 16.2255 7.3125 16.4844C7.3125 16.7433 7.52237 16.9531 7.78125 16.9531Z" fill="#99AF61"/>
</svg>
