<svg width="24" height="25" viewBox="0 0 24 25" fill="none" xmlns="http://www.w3.org/2000/svg">
<path d="M17.186 7.93382C17.1847 6.88637 16.8802 5.86169 16.3093 4.98347C15.7385 4.10525 14.9256 3.41103 13.9689 2.98462C13.0122 2.55821 11.9525 2.41783 10.9177 2.58043C9.88294 2.74302 8.91736 3.20165 8.13753 3.90094C7.35769 4.60023 6.79692 5.51029 6.52292 6.52127C6.24892 7.53225 6.2734 8.60093 6.59339 9.59831C6.91339 10.5957 7.51523 11.4791 8.32627 12.142C9.13731 12.8048 10.1229 13.2188 11.164 13.3338C11.164 13.3438 11.164 13.3558 11.164 13.3678V21.7678C11.164 21.8739 11.2061 21.9756 11.2811 22.0507C11.3562 22.1257 11.4579 22.1678 11.564 22.1678H11.964C12.0701 22.1678 12.1718 22.1257 12.2468 22.0507C12.3218 21.9756 12.364 21.8739 12.364 21.7678V13.3678C12.364 13.3558 12.364 13.3438 12.364 13.3338C13.6908 13.1834 14.9158 12.5498 15.8052 11.5538C16.6946 10.5578 17.1861 9.26913 17.186 7.93382ZM11.76 12.5598C10.845 12.5598 9.95065 12.2885 9.18991 11.7802C8.42917 11.2719 7.83624 10.5494 7.48611 9.70411C7.13598 8.85882 7.04437 7.92869 7.22287 7.03133C7.40136 6.13398 7.84195 5.3097 8.4889 4.66274C9.13586 4.01579 9.96014 3.5752 10.8575 3.39671C11.7548 3.21821 12.685 3.30982 13.5303 3.65995C14.3756 4.01008 15.098 4.60301 15.6064 5.36375C16.1147 6.12449 16.386 7.01888 16.386 7.93382C16.3849 9.16039 15.8972 10.3364 15.0299 11.2037C14.1626 12.071 12.9865 12.5588 11.76 12.5598Z" fill="#99AF61"/>
<path d="M12.2162 12.0719C12.2719 12.0703 12.3263 12.0544 12.3742 12.0259C12.4086 12.0043 12.4383 11.9762 12.4617 11.943C12.4852 11.9099 12.5018 11.8725 12.5107 11.8329C12.5197 11.7933 12.5207 11.7523 12.5137 11.7124C12.5068 11.6724 12.492 11.6342 12.4702 11.5999C12.4364 11.545 12.3861 11.5022 12.3264 11.4777C12.2667 11.4533 12.2008 11.4484 12.1382 11.4639C11.2412 11.3982 10.4053 10.9854 9.80775 10.3132C9.21025 9.64102 8.89832 8.76239 8.9382 7.86392C8.9536 7.50758 9.0392 7.15777 9.19009 6.83458C9.34097 6.51138 9.55417 6.22115 9.81746 5.98053C10.0808 5.73991 10.389 5.55363 10.7244 5.43237C11.0598 5.31112 11.4159 5.25727 11.7722 5.27392C12.3286 5.30191 12.8514 5.54902 13.2261 5.96127C13.6009 6.37351 13.7972 6.91735 13.7722 7.47392C13.7525 7.90461 13.5625 8.30983 13.2441 8.60049C12.9257 8.89116 12.5049 9.04346 12.0742 9.02392C11.9115 9.01648 11.7518 8.97705 11.6043 8.90788C11.4569 8.83871 11.3245 8.74116 11.2147 8.62081C11.1049 8.50046 11.0199 8.35966 10.9646 8.20645C10.9093 8.05325 10.8847 7.89064 10.8922 7.72792C10.8976 7.60558 10.9271 7.4855 10.979 7.37458C11.0309 7.26367 11.1042 7.1641 11.1947 7.08159C11.2852 6.99908 11.3911 6.93526 11.5064 6.89379C11.6216 6.85232 11.7439 6.83401 11.8662 6.83992C11.9562 6.84377 12.0446 6.86537 12.1263 6.90348C12.2079 6.9416 12.2812 6.99546 12.342 7.062C12.4028 7.12853 12.4498 7.20642 12.4804 7.29118C12.511 7.37594 12.5245 7.46591 12.5202 7.55592C12.5159 7.61776 12.5313 7.67936 12.5642 7.73192C12.601 7.79337 12.6585 7.83972 12.7264 7.86269C12.7943 7.88566 12.8681 7.88375 12.9347 7.85731C13.0013 7.83087 13.0563 7.78161 13.0899 7.71834C13.1235 7.65507 13.1335 7.58191 13.1182 7.51192C13.115 7.18343 12.9862 6.86861 12.7582 6.63208C12.5302 6.39555 12.2204 6.25523 11.8922 6.23992C11.6911 6.23079 11.4902 6.26137 11.301 6.32991C11.1117 6.39845 10.9378 6.50361 10.7893 6.63938C10.6407 6.77516 10.5203 6.93888 10.435 7.12119C10.3497 7.30351 10.3012 7.50085 10.2922 7.70192C10.271 8.18944 10.444 8.66547 10.7731 9.02573C11.1022 9.38599 11.5608 9.6011 12.0482 9.62392C12.341 9.63844 12.6337 9.59493 12.9097 9.4959C13.1856 9.39687 13.4392 9.24427 13.6559 9.04687C13.8726 8.84948 14.0482 8.61119 14.1725 8.34571C14.2968 8.08022 14.3674 7.79279 14.3802 7.49992C14.4122 6.78339 14.1585 6.08346 13.6747 5.55394C13.1909 5.02441 12.5167 4.70861 11.8002 4.67592C11.366 4.65576 10.9321 4.72137 10.5233 4.869C10.1144 5.01663 9.73871 5.24338 9.41757 5.53629C9.09642 5.8292 8.83615 6.18254 8.65163 6.57609C8.46711 6.96965 8.36197 7.39571 8.3422 7.82992C8.29303 8.89657 8.66625 9.93961 9.38095 10.7329C10.0956 11.5262 11.0942 12.0059 12.1602 12.0679H12.2082L12.2162 12.0719Z" fill="#99AF61"/>
</svg>
