<svg width="24" height="25" viewBox="0 0 24 25" fill="none" xmlns="http://www.w3.org/2000/svg">
<path d="M19.351 13.454C20.008 13.2945 20.4995 12.7055 20.4995 12C20.4995 11.5945 20.341 11.2175 20.0625 10.946C19.8825 10.761 19.6595 10.6365 19.4175 10.566C19.4705 10.301 19.4995 10.0285 19.4995 9.75002C19.4995 8.29302 18.762 7.00602 17.6415 6.24002L19.3485 3.51102C19.494 3.27852 19.5365 3.00452 19.47 2.73902C19.404 2.47752 19.2315 2.25052 19.001 2.11852L18.1625 1.63152C17.9275 1.49702 17.6425 1.46352 17.3825 1.54102C17.12 1.61802 16.9065 1.79402 16.7825 2.03202L15.807 3.87402C15.1125 2.47002 13.669 1.50002 11.999 1.50002C9.69852 1.50002 7.82402 3.33802 7.75552 5.62202C5.89052 6.07102 4.49902 7.74902 4.49902 9.75002C4.49902 10.029 4.52852 10.301 4.58152 10.5665C3.95852 10.749 3.49902 11.319 3.49902 12C3.49902 12.4055 3.65752 12.7825 3.93602 13.054C4.13252 13.256 4.37902 13.3895 4.64752 13.454C5.22752 16.391 7.52802 18.6795 10.3905 19.316C10.323 19.6145 10.2395 19.9095 10.122 20.1935C10.045 20.3795 9.86152 20.4995 9.65402 20.4995H7.99902C6.89602 20.4995 5.99902 21.3965 5.99902 22.4995C5.99902 23.051 6.44752 23.4995 6.99902 23.4995H16.999C17.5505 23.4995 17.999 23.051 17.999 22.4995C17.999 21.9665 17.7905 21.464 17.4125 21.086C17.0345 20.708 16.5325 20.4995 15.999 20.4995H14.344C14.1365 20.4995 13.953 20.3795 13.876 20.1935C13.7585 19.9095 13.6755 19.6145 13.6075 19.316C16.47 18.6795 18.7705 16.3905 19.3505 13.4535L19.351 13.454ZM18.9995 12.5H11.4995V11.5H18.9995C19.133 11.5 19.256 11.551 19.3555 11.653C19.4485 11.7435 19.4995 11.867 19.4995 12C19.4995 12.2755 19.275 12.5 18.9995 12.5ZM18.4995 9.75002C18.4995 10.0095 18.4585 10.258 18.399 10.5H12.932C12.9765 10.256 12.9995 10.0055 12.9995 9.75002C12.9995 9.09402 12.8455 8.47452 12.579 7.91902C13.18 7.04052 14.1775 6.50002 15.2495 6.50002C17.0415 6.50002 18.4995 7.95802 18.4995 9.75002ZM17.6635 2.49852L18.501 2.98102L16.7505 5.77902C16.586 5.71652 16.417 5.66402 16.243 5.62202C16.239 5.49302 16.231 5.36502 16.2155 5.23902L17.663 2.49802L17.6635 2.49852ZM11.9995 2.50002C13.7075 2.50002 15.109 3.82502 15.237 5.50102C13.9795 5.50502 12.802 6.07652 12.006 7.02452C11.2285 6.09702 10.0635 5.50502 8.76202 5.50102C8.89002 3.82552 10.2915 2.50002 11.9995 2.50002ZM8.74952 6.50002C10.5415 6.50002 11.9995 7.95802 11.9995 9.75002C11.9995 10.0095 11.9585 10.258 11.899 10.5H11.4995C11.4995 10.224 11.2755 10 10.9995 10C10.7235 10 10.4995 10.224 10.4995 10.5V13C10.4995 13.276 10.275 13.5 9.99952 13.5C9.72402 13.5 9.49952 13.276 9.49952 13V10.5C9.49952 10.224 9.27552 10 8.99952 10C8.72352 10 8.49952 10.224 8.49952 10.5V11.5C8.49952 11.7755 8.27502 12 7.99952 12C7.72402 12 7.49952 11.7755 7.49952 11.5V10.5C7.49952 10.224 7.27552 10 6.99952 10C6.72352 10 6.49952 10.224 6.49952 10.5H5.60002C5.54052 10.258 5.49952 10.0095 5.49952 9.75002C5.49952 7.95802 6.95752 6.50002 8.74952 6.50002ZM4.99952 11.5H6.49952C6.49952 11.8855 6.65002 12.234 6.88952 12.5H4.99952C4.86602 12.5 4.74302 12.449 4.64352 12.347C4.55052 12.2565 4.49952 12.133 4.49952 12C4.49952 11.7245 4.72402 11.5 4.99952 11.5ZM12.9525 20.5755C13.1845 21.137 13.731 21.5 14.3445 21.5H15.9995C16.266 21.5 16.517 21.604 16.706 21.7935C16.895 21.983 16.9995 22.234 16.9995 22.5H6.99952C6.99952 21.9485 7.44802 21.5 7.99952 21.5H9.65452C10.268 21.5 10.8145 21.137 11.0465 20.5755C11.194 20.2185 11.2965 19.847 11.3775 19.471C11.583 19.4885 11.79 19.5 11.9995 19.5C12.209 19.5 12.416 19.4885 12.6215 19.471C12.7025 19.847 12.805 20.2185 12.9525 20.5755ZM11.9995 18.5C8.98102 18.5 6.35802 16.3875 5.67352 13.5H8.59202C8.79902 14.0805 9.34902 14.5 10 14.5C10.651 14.5 11.201 14.0805 11.408 13.5H18.326C17.6415 16.3875 15.018 18.5 11.9995 18.5Z" fill="#99AF61"/>
</svg>
