<svg width="24" height="24" viewBox="0 0 24 24" fill="none" xmlns="http://www.w3.org/2000/svg">
<path d="M18.7315 19.1729C17.4615 20.3631 15.8989 21.1956 14.2027 21.5858C12.5064 21.9761 10.7371 21.91 9.0747 21.3945C9.01072 21.3746 8.94146 21.381 8.88215 21.4121C8.82284 21.4433 8.77835 21.4968 8.75846 21.5607C8.73857 21.6247 8.74491 21.694 8.77609 21.7533C8.80726 21.8126 8.86072 21.8571 8.9247 21.877C10.6725 22.4191 12.5327 22.4886 14.3161 22.0784C16.0994 21.6681 17.7423 20.7927 19.0775 19.5413C19.1263 19.4955 19.1549 19.4321 19.1571 19.3651C19.1592 19.2981 19.1346 19.2331 19.0888 19.1842C19.0429 19.1354 18.9795 19.1067 18.9126 19.1046C18.8456 19.1025 18.7806 19.1271 18.7317 19.1729H18.7315Z" fill="#99AF61"/>
<path d="M12.0668 1.65775C12.0443 1.65775 12.0219 1.65775 11.9993 1.65775C10.4345 1.65389 8.88966 2.00937 7.48389 2.69678C7.42444 2.72659 7.37914 2.77865 7.35782 2.84165C7.3365 2.90465 7.34089 2.97352 7.37002 3.03331C7.39916 3.0931 7.45069 3.13899 7.51345 3.16102C7.57621 3.18305 7.64512 3.17945 7.70524 3.151C9.06189 2.48854 10.5539 2.15039 12.0636 2.1632C17.4528 2.19718 21.8371 6.61 21.8371 12C21.8379 13.7483 21.3724 15.4651 20.4884 16.9735C20.1081 17.621 19.3512 17.9378 18.6479 17.7438C18.1738 17.6128 17.7456 17.3524 17.4112 16.9917L17.405 16.9851C17.1759 16.7402 16.8785 16.5699 16.5514 16.4963C16.2243 16.4226 15.8826 16.4491 15.5707 16.5722C15.2588 16.6953 14.9912 16.9094 14.8026 17.1866C14.614 17.4639 14.5131 17.7914 14.5131 18.1267V19.7587C14.5121 19.9867 14.4222 20.2054 14.2625 20.3682C14.1028 20.531 13.8859 20.6251 13.6579 20.6305C13.5443 20.632 13.4315 20.6107 13.3261 20.5679C13.2208 20.5251 13.1252 20.4616 13.0448 20.3812C12.9581 20.2961 12.8892 20.1947 12.8419 20.0828C12.7946 19.971 12.7699 19.8508 12.7693 19.7294V19.6091C12.7693 19.3458 12.6921 19.0883 12.5473 18.8684C12.4025 18.6485 12.1965 18.4758 11.9546 18.3717C11.7127 18.2676 11.4457 18.2367 11.1864 18.2828C10.9272 18.3288 10.6871 18.4498 10.4959 18.6308L9.11308 19.9401C9.02135 20.027 8.92427 20.1102 8.82442 20.1874C8.51906 20.4216 8.14872 20.5555 7.76422 20.5708C7.37971 20.5862 6.99988 20.4821 6.67685 20.273C5.47805 19.502 4.46123 18.4796 3.69684 17.2766C2.93244 16.0736 2.43876 14.7188 2.25 13.3061C2.06123 11.8933 2.1819 10.4564 2.60364 9.09491C3.02539 7.73342 3.73811 6.47991 4.69244 5.42125C4.7373 5.37147 4.76055 5.30591 4.75707 5.23899C4.7536 5.17207 4.72368 5.10927 4.6739 5.06441C4.64925 5.0422 4.62047 5.02506 4.5892 5.01397C4.55793 5.00288 4.52478 4.99805 4.49164 4.99978C4.42472 5.00325 4.36193 5.03317 4.31706 5.08295C3.31377 6.19599 2.56447 7.51385 2.12108 8.94523C1.67769 10.3766 1.5508 11.8873 1.74922 13.3726C1.94764 14.8578 2.46662 16.2822 3.27019 17.547C4.07377 18.8118 5.14273 19.8868 6.403 20.6974C6.81392 20.9631 7.29697 21.095 7.78588 21.0752C8.27478 21.0554 8.74557 20.8848 9.13366 20.5868C9.24663 20.4994 9.35664 20.4052 9.46061 20.3068L10.8434 18.9975C10.9629 18.8843 11.113 18.8087 11.275 18.7799C11.437 18.7511 11.604 18.7704 11.7552 18.8354C11.9063 18.9005 12.0351 19.0084 12.1256 19.1459C12.2161 19.2833 12.2644 19.4443 12.2643 19.6089V19.7291C12.2651 19.9177 12.3032 20.1043 12.3765 20.2781C12.4497 20.4519 12.5567 20.6094 12.6912 20.7416C12.9438 20.9934 13.2856 21.135 13.6422 21.1357C13.6507 21.1357 13.6593 21.1357 13.6677 21.1357C14.0278 21.1272 14.3704 20.9786 14.6227 20.7215C14.875 20.4644 15.0171 20.1191 15.0188 19.7589V18.1267C15.0188 17.8928 15.0891 17.6643 15.2206 17.4708C15.3522 17.2774 15.5388 17.1281 15.7564 17.0421C15.9739 16.9562 16.2123 16.9377 16.4405 16.989C16.6687 17.0403 16.8762 17.159 17.0361 17.3298L17.0418 17.3358C17.4399 17.765 17.9497 18.0749 18.514 18.2308C19.4374 18.4852 20.4286 18.0735 20.9245 17.2292C21.8422 15.6627 22.3315 13.8822 22.343 12.0667C22.3546 10.2512 21.8881 8.46469 20.9904 6.88662C20.0928 5.30856 18.7955 3.99457 17.2291 3.07671C15.6627 2.15886 13.8823 1.66948 12.0668 1.65775Z" fill="#99AF61"/>
<path d="M5.94423 3.62051C5.78884 3.73301 5.63429 3.8517 5.48485 3.97325C5.43363 4.01576 5.40125 4.07677 5.39476 4.14302C5.38827 4.20927 5.40818 4.2754 5.45017 4.32705C5.49216 4.3787 5.55284 4.41169 5.61902 4.41886C5.6852 4.42602 5.75153 4.40678 5.8036 4.36531C5.94577 4.24972 6.09287 4.13684 6.24062 4.02973C6.26766 4.01034 6.2906 3.98579 6.30813 3.9575C6.32566 3.92921 6.33742 3.89774 6.34275 3.86489C6.34808 3.83204 6.34686 3.79846 6.33918 3.76608C6.33149 3.7337 6.31749 3.70316 6.29796 3.67621C6.27844 3.64926 6.25379 3.62644 6.22542 3.60904C6.19705 3.59165 6.16552 3.58003 6.13265 3.57485C6.09977 3.56968 6.0662 3.57105 6.03386 3.57888C6.00152 3.58672 5.97109 3.60087 5.94423 3.62051Z" fill="#99AF61"/>
<path d="M8.98145 12.0002C8.98195 12.6451 9.18915 13.2729 9.57266 13.7914C9.95616 14.3098 10.4958 14.6917 11.1123 14.881C11.7288 15.0703 12.3897 15.0569 12.9981 14.8429C13.6065 14.629 14.1302 14.2256 14.4925 13.6921C14.8548 13.1585 15.0365 12.5229 15.011 11.8785C14.9854 11.2341 14.754 10.6149 14.3507 10.1117C13.9474 9.60845 13.3934 9.24778 12.77 9.08257C12.1466 8.91737 11.4867 8.95634 10.8871 9.19376C10.8558 9.2057 10.8272 9.22372 10.803 9.24679C10.7788 9.26985 10.7594 9.2975 10.7459 9.32813C10.7324 9.35875 10.7252 9.39175 10.7246 9.4252C10.724 9.45865 10.73 9.49188 10.7424 9.52298C10.7547 9.55408 10.7731 9.58241 10.7965 9.60634C10.8199 9.63027 10.8477 9.64932 10.8785 9.66238C10.9093 9.67545 10.9424 9.68226 10.9759 9.68244C11.0093 9.68261 11.0425 9.67614 11.0734 9.6634C11.6434 9.437 12.2764 9.42663 12.8534 9.63422C13.4304 9.84182 13.9118 10.2531 14.2068 10.7907C14.5019 11.3283 14.5904 11.9551 14.4557 12.5534C14.321 13.1517 13.9724 13.6801 13.4753 14.0393C12.9783 14.3986 12.3672 14.5639 11.7569 14.5041C11.1465 14.4443 10.5791 14.1637 10.1612 13.7148C9.74329 13.266 9.50377 12.68 9.48766 12.067C9.47156 11.4539 9.67998 10.8561 10.0737 10.386C10.0951 10.3606 10.1112 10.3312 10.1212 10.2996C10.1311 10.2679 10.1348 10.2346 10.1319 10.2016C10.129 10.1685 10.1196 10.1364 10.1043 10.1069C10.089 10.0775 10.0681 10.0514 10.0426 10.0301C10.0172 10.0087 9.98787 9.99261 9.95624 9.98263C9.9246 9.97265 9.8913 9.969 9.85825 9.97188C9.8252 9.97477 9.79304 9.98413 9.76361 9.99945C9.73418 10.0148 9.70806 10.0357 9.68673 10.0611C9.23132 10.6047 8.98166 11.2911 8.98145 12.0002Z" fill="#99AF61"/>
<path d="M4.6974 14.992C4.72737 15.052 4.77992 15.0975 4.84349 15.1187C4.90705 15.1399 4.97643 15.1349 5.03635 15.105C5.09627 15.075 5.14183 15.0224 5.16301 14.9589C5.18419 14.8953 5.17925 14.8259 5.14927 14.766L4.84576 14.1591C4.83108 14.1291 4.81062 14.1024 4.78556 14.0804C4.76049 14.0584 4.73132 14.0415 4.69972 14.0309C4.66812 14.0202 4.63472 14.0159 4.60144 14.0182C4.56817 14.0205 4.53568 14.0293 4.50585 14.0443C4.47602 14.0592 4.44944 14.0799 4.42764 14.1051C4.40584 14.1304 4.38925 14.1597 4.37884 14.1914C4.36843 14.223 4.36439 14.2565 4.36696 14.2897C4.36954 14.323 4.37867 14.3554 4.39383 14.3851L4.6974 14.992Z" fill="#99AF61"/>
<path d="M8.37816 14.8645C8.35797 14.8382 8.33278 14.8161 8.30404 14.7995C8.2753 14.7829 8.24358 14.7721 8.21068 14.7678C8.17777 14.7635 8.14434 14.7657 8.11229 14.7743C8.08024 14.7829 8.0502 14.7977 8.02388 14.8179L7.48552 15.2312C7.43237 15.2719 7.39761 15.3322 7.38888 15.3986C7.38014 15.465 7.39815 15.5322 7.43895 15.5854C7.47975 15.6385 7.53998 15.6733 7.60641 15.682C7.67284 15.6907 7.74001 15.6727 7.79316 15.6319L8.33152 15.2187C8.38468 15.1779 8.41945 15.1177 8.4282 15.0513C8.43695 14.9848 8.41895 14.9177 8.37816 14.8645Z" fill="#99AF61"/>
<path d="M7.67854 17.5498L7.3695 18.1539C7.33899 18.2136 7.33344 18.283 7.35406 18.3467C7.37468 18.4105 7.41979 18.4635 7.47947 18.494C7.53914 18.5245 7.60849 18.53 7.67226 18.5094C7.73602 18.4888 7.78899 18.4437 7.8195 18.384L8.12854 17.7798C8.14365 17.7503 8.15279 17.7181 8.15544 17.685C8.15809 17.6519 8.15419 17.6186 8.14398 17.587C8.13377 17.5555 8.11744 17.5262 8.09592 17.501C8.07441 17.4757 8.04812 17.4549 8.01857 17.4398C7.98903 17.4247 7.95679 17.4156 7.92371 17.4129C7.89064 17.4103 7.85736 17.4142 7.82578 17.4244C7.79421 17.4346 7.76496 17.4509 7.73969 17.4724C7.71443 17.4939 7.69365 17.5202 7.67854 17.5498Z" fill="#99AF61"/>
<path d="M6.8634 11.8405C6.85088 11.8712 6.84454 11.9041 6.84473 11.9373C6.84493 11.9705 6.85165 12.0033 6.86453 12.0339C6.87742 12.0644 6.89619 12.0922 6.9198 12.1155C6.9434 12.1388 6.97137 12.1573 7.00211 12.1698L7.63065 12.4257C7.69252 12.45 7.76147 12.4489 7.82255 12.4227C7.88363 12.3965 7.93194 12.3473 7.957 12.2858C7.98207 12.2242 7.98188 12.1553 7.95647 12.0939C7.93106 12.0324 7.88248 11.9835 7.82125 11.9577L7.1927 11.7017C7.13063 11.6765 7.06108 11.6769 6.99933 11.7029C6.93758 11.729 6.88869 11.7784 6.8634 11.8405Z" fill="#99AF61"/>
<path d="M8.40032 8.83839C8.36607 8.78079 8.31035 8.73916 8.2454 8.72264C8.18046 8.70612 8.11162 8.71608 8.05401 8.75032L7.4707 9.09719C7.4421 9.11411 7.41712 9.1365 7.39719 9.16308C7.37726 9.18967 7.36276 9.21992 7.35454 9.25211C7.34632 9.2843 7.34452 9.3178 7.34926 9.35069C7.354 9.38358 7.36518 9.4152 7.38216 9.44376C7.39914 9.47232 7.42159 9.49725 7.44822 9.51713C7.47484 9.537 7.50513 9.55143 7.53734 9.55958C7.56955 9.56773 7.60305 9.56945 7.63593 9.56464C7.66881 9.55983 7.70041 9.54858 7.72893 9.53153L8.31224 9.18466C8.36984 9.15042 8.41147 9.0947 8.42799 9.02977C8.44451 8.96483 8.43456 8.89599 8.40032 8.83839Z" fill="#99AF61"/>
<path d="M4.89785 10.6787C4.95453 10.6787 5.00957 10.6597 5.05413 10.6246C5.09869 10.5896 5.13018 10.5406 5.14354 10.4855C5.1569 10.4304 5.15135 10.3725 5.12779 10.3209C5.10423 10.2694 5.06402 10.2272 5.01363 10.2013L4.41021 9.89079C4.35063 9.86013 4.28132 9.8544 4.21752 9.87485C4.15372 9.89529 4.10065 9.94025 4.06999 9.99982C4.03933 10.0594 4.0336 10.1287 4.05404 10.1925C4.07449 10.2563 4.11945 10.3094 4.17902 10.34L4.78244 10.6506C4.81812 10.669 4.85769 10.6786 4.89785 10.6787Z" fill="#99AF61"/>
<path d="M6.88233 5.70525C6.84931 5.70847 6.81725 5.71818 6.78798 5.7338C6.7587 5.74942 6.7328 5.77065 6.71173 5.79628C6.69067 5.82192 6.67486 5.85145 6.66521 5.88319C6.65557 5.91494 6.65227 5.94827 6.6555 5.98129L6.72169 6.65671C6.72778 6.71911 6.75686 6.77701 6.80327 6.81916C6.84968 6.8613 6.91011 6.88469 6.9728 6.88476C6.98111 6.88477 6.98942 6.88437 6.99769 6.88354C7.03071 6.88032 7.06278 6.87062 7.09205 6.85501C7.12132 6.83939 7.14723 6.81815 7.1683 6.79252C7.18936 6.76688 7.20517 6.73735 7.21482 6.7056C7.22446 6.67385 7.22776 6.64052 7.22452 6.6075L7.15824 5.93207C7.15158 5.86547 7.11882 5.80421 7.06711 5.7617C7.0154 5.71919 6.94896 5.69889 6.88233 5.70525Z" fill="#99AF61"/>
<path d="M10.6768 7.95379C10.7053 7.97084 10.7369 7.9821 10.7697 7.98695C10.8025 7.99179 10.836 7.99012 10.8682 7.98202C10.9004 7.97392 10.9306 7.95956 10.9573 7.93976C10.9839 7.91995 11.0064 7.8951 11.0234 7.8666L11.3714 7.28418C11.3885 7.2557 11.3997 7.22415 11.4045 7.19132C11.4094 7.15849 11.4077 7.12504 11.3996 7.09286C11.3915 7.06068 11.3771 7.03041 11.3573 7.00378C11.3375 6.97715 11.3127 6.95469 11.2842 6.93766C11.2557 6.92063 11.2242 6.90938 11.1914 6.90455C11.1585 6.89972 11.1251 6.9014 11.0929 6.9095C11.0607 6.91759 11.0305 6.93195 11.0038 6.95175C10.9772 6.97154 10.9547 6.99639 10.9377 7.02487L10.5894 7.60734C10.5551 7.66488 10.545 7.7337 10.5614 7.79867C10.5778 7.86364 10.6193 7.91943 10.6768 7.95379Z" fill="#99AF61"/>
<path d="M10.1246 4.05102C10.078 4.00288 10.0142 3.97523 9.94717 3.97415C9.88017 3.97308 9.81548 3.99866 9.76733 4.04528C9.71919 4.0919 9.69154 4.15574 9.69046 4.22275C9.68939 4.28975 9.71497 4.35444 9.76159 4.40259L10.2336 4.89009C10.2802 4.93824 10.3441 4.96589 10.4111 4.96698C10.4781 4.96806 10.5428 4.94247 10.591 4.89585C10.6391 4.84923 10.6668 4.7854 10.6678 4.71838C10.6689 4.65137 10.6433 4.58667 10.5967 4.53852L10.1246 4.05102Z" fill="#99AF61"/>
<path d="M14.5458 4.17382C14.5464 4.14063 14.5404 4.10766 14.5282 4.07679C14.516 4.04591 14.4979 4.01774 14.4748 3.99388C14.4518 3.97002 14.4242 3.95094 14.3938 3.93773C14.3633 3.92452 14.3305 3.91744 14.2974 3.9169L13.6188 3.90527H13.6144C13.5479 3.90542 13.4841 3.93182 13.4369 3.97872C13.3897 4.02563 13.3629 4.08926 13.3623 4.1558C13.3618 4.22233 13.3875 4.28641 13.4339 4.3341C13.4803 4.3818 13.5436 4.40927 13.6101 4.41054L14.2887 4.42212C14.2901 4.42212 14.2917 4.42212 14.2931 4.42212C14.3594 4.42214 14.423 4.39613 14.4703 4.34968C14.5175 4.30324 14.5447 4.24008 14.5458 4.17382Z" fill="#99AF61"/>
<path d="M14.0691 7.10621L13.5097 7.49058C13.4816 7.50901 13.4574 7.53288 13.4386 7.56078C13.4198 7.58869 13.4068 7.62006 13.4003 7.65307C13.3938 7.68608 13.3939 7.72005 13.4007 7.753C13.4075 7.78595 13.4208 7.81721 13.4399 7.84494C13.4589 7.87268 13.4833 7.89633 13.5116 7.91451C13.5399 7.9327 13.5716 7.94504 13.6047 7.95083C13.6378 7.95662 13.6718 7.95573 13.7046 7.94821C13.7374 7.9407 13.7684 7.92671 13.7957 7.90706L14.3551 7.52269C14.383 7.50416 14.407 7.48027 14.4256 7.45239C14.4442 7.42451 14.457 7.39321 14.4634 7.36031C14.4698 7.32741 14.4696 7.29357 14.4628 7.26076C14.4559 7.22795 14.4427 7.19682 14.4237 7.16919C14.4047 7.14156 14.3804 7.11799 14.3523 7.09983C14.3241 7.08168 14.2926 7.06932 14.2596 7.06346C14.2266 7.0576 14.1928 7.05837 14.1601 7.06571C14.1274 7.07306 14.0965 7.0868 14.0691 7.10621Z" fill="#99AF61"/>
<path d="M17.6571 5.70964L17.0502 5.40607C16.9903 5.37611 16.9209 5.37117 16.8573 5.39235C16.7938 5.41353 16.7412 5.4591 16.7112 5.51902C16.6813 5.57894 16.6763 5.64831 16.6975 5.71188C16.7187 5.77544 16.7643 5.82798 16.8242 5.85795L17.4311 6.16151C17.4608 6.17635 17.4931 6.1852 17.5262 6.18755C17.5593 6.18991 17.5925 6.18572 17.624 6.17523C17.6555 6.16475 17.6846 6.14816 17.7096 6.12643C17.7347 6.10469 17.7552 6.07824 17.7701 6.04857C17.7849 6.0189 17.7937 5.98659 17.7961 5.9535C17.7985 5.92041 17.7943 5.88718 17.7838 5.85571C17.7733 5.82424 17.7567 5.79514 17.735 5.77007C17.7132 5.74501 17.6868 5.72447 17.6571 5.70964Z" fill="#99AF61"/>
<path d="M17.5052 8.06141C17.4513 8.02151 17.3839 8.00462 17.3176 8.01446C17.2513 8.02429 17.1917 8.06005 17.1517 8.11386L16.7474 8.65888C16.7275 8.68552 16.7131 8.71583 16.705 8.74805C16.6968 8.78028 16.6951 8.81379 16.7 8.84668C16.7048 8.87956 16.7161 8.91117 16.7331 8.93969C16.7502 8.96821 16.7727 8.99308 16.7994 9.01288C16.8261 9.03267 16.8565 9.04701 16.8887 9.05506C16.921 9.06311 16.9545 9.06472 16.9874 9.0598C17.0202 9.05487 17.0518 9.04351 17.0803 9.02636C17.1087 9.00921 17.1336 8.98662 17.1533 8.95986L17.5577 8.41485C17.5976 8.36101 17.6144 8.29354 17.6046 8.22726C17.5948 8.16098 17.559 8.10132 17.5052 8.06141Z" fill="#99AF61"/>
<path d="M19.5442 9.47826C19.5018 9.42632 19.4406 9.39333 19.3739 9.38655C19.3073 9.37977 19.2406 9.39975 19.1887 9.44209C19.1368 9.48444 19.1038 9.54568 19.097 9.61234C19.0902 9.67901 19.1102 9.74563 19.1525 9.79757L19.5812 10.3236C19.6235 10.3755 19.6848 10.4085 19.7515 10.4153C19.8181 10.4221 19.8848 10.4021 19.9367 10.3598C19.9887 10.3174 20.0217 10.2562 20.0285 10.1895C20.0353 10.1229 20.0153 10.0562 19.9729 10.0043L19.5442 9.47826Z" fill="#99AF61"/>
<path d="M16.5815 12.8896C16.6074 12.9103 16.6372 12.9257 16.6691 12.9349C16.7009 12.9441 16.7343 12.9469 16.7673 12.9431C16.8003 12.9394 16.8322 12.9292 16.8612 12.9132C16.8902 12.8971 16.9158 12.8755 16.9365 12.8495L17.3595 12.3188C17.4013 12.2664 17.4205 12.1996 17.413 12.133C17.4055 12.0664 17.3718 12.0055 17.3194 11.9638C17.267 11.922 17.2002 11.9028 17.1336 11.9103C17.067 11.9178 17.0061 11.9515 16.9643 12.0039L16.5414 12.5346C16.5208 12.5605 16.5054 12.5903 16.4962 12.6222C16.487 12.6541 16.4842 12.6874 16.4879 12.7204C16.4916 12.7534 16.5018 12.7853 16.5179 12.8143C16.5339 12.8434 16.5555 12.8689 16.5815 12.8896Z" fill="#99AF61"/>
<path d="M19.2927 12.5906C19.2658 12.652 19.2644 12.7215 19.2888 12.7839C19.3131 12.8463 19.3613 12.8965 19.4226 12.9234L20.0441 13.196C20.0744 13.2093 20.1072 13.2166 20.1403 13.2172C20.1735 13.2179 20.2065 13.2121 20.2374 13.2C20.2683 13.1879 20.2965 13.1699 20.3205 13.1469C20.3444 13.1239 20.3636 13.0965 20.3769 13.0661C20.3902 13.0357 20.3974 13.003 20.3981 12.9698C20.3988 12.9366 20.3929 12.9037 20.3809 12.8727C20.3688 12.8418 20.3508 12.8136 20.3278 12.7897C20.3048 12.7657 20.2774 12.7465 20.247 12.7332L19.6256 12.4607C19.5642 12.4338 19.4947 12.4324 19.4323 12.4568C19.3699 12.4811 19.3197 12.5293 19.2927 12.5906Z" fill="#99AF61"/>
<path d="M17.7967 15.6052C17.8577 15.6053 17.9166 15.5832 17.9625 15.543L18.4741 15.0971C18.4993 15.0754 18.5201 15.0489 18.5351 15.0191C18.5501 14.9894 18.559 14.9569 18.5614 14.9237C18.5638 14.8904 18.5596 14.8571 18.549 14.8254C18.5385 14.7938 18.5218 14.7646 18.4999 14.7395C18.478 14.7144 18.4513 14.6938 18.4215 14.679C18.3916 14.6643 18.3591 14.6555 18.3259 14.6534C18.2926 14.6512 18.2592 14.6556 18.2277 14.6664C18.1962 14.6772 18.1671 14.6941 18.1421 14.7162L17.6306 15.1621C17.5918 15.1959 17.5642 15.2407 17.5516 15.2906C17.539 15.3405 17.542 15.3931 17.56 15.4412C17.5781 15.4894 17.6104 15.5309 17.6527 15.5602C17.695 15.5895 17.7452 15.6052 17.7967 15.6052Z" fill="#99AF61"/>
<path d="M15.48 16.0745C15.4849 16.0745 15.4899 16.0745 15.4948 16.0741C15.5617 16.0702 15.6243 16.04 15.6689 15.9899C15.7134 15.9399 15.7363 15.8742 15.7324 15.8073L15.6934 15.1298C15.6917 15.0966 15.6833 15.064 15.669 15.034C15.6546 15.004 15.6344 14.9772 15.6096 14.955C15.5848 14.9328 15.5559 14.9157 15.5245 14.9048C15.4931 14.8938 15.4598 14.8891 15.4266 14.891C15.3934 14.893 15.3609 14.9014 15.3309 14.9159C15.301 14.9304 15.2742 14.9507 15.2521 14.9756C15.23 15.0005 15.2131 15.0295 15.2023 15.061C15.1914 15.0924 15.1869 15.1257 15.189 15.1589L15.228 15.8364C15.2317 15.9008 15.2599 15.9613 15.3067 16.0055C15.3535 16.0498 15.4155 16.0745 15.48 16.0745Z" fill="#99AF61"/>
<path d="M11.8299 16.2518C11.8043 16.273 11.7832 16.2989 11.7676 16.3283C11.7521 16.3576 11.7425 16.3897 11.7394 16.4227C11.7363 16.4557 11.7397 16.4891 11.7495 16.5208C11.7592 16.5525 11.7751 16.582 11.7963 16.6075L12.2288 17.1305C12.2715 17.1821 12.333 17.2147 12.3997 17.221C12.4664 17.2273 12.5329 17.2068 12.5845 17.1641C12.6362 17.1214 12.6687 17.0599 12.675 16.9932C12.6813 16.9265 12.6608 16.86 12.6181 16.8083L12.1856 16.2854C12.1429 16.2338 12.0814 16.2013 12.0147 16.195C11.948 16.1887 11.8815 16.2091 11.8299 16.2518Z" fill="#99AF61"/>
</svg>
