<svg width="24" height="25" viewBox="0 0 24 25" fill="none" xmlns="http://www.w3.org/2000/svg">
<g clip-path="url(#clip0_221049_2327)">
<path fill-rule="evenodd" clip-rule="evenodd" d="M16.6406 23.2344H7.35938C6.51562 23.2344 5.85938 22.5312 5.85938 21.6875V5.42188C5.85938 4.57812 6.51562 3.875 7.35938 3.875H16.6406C17.4844 3.875 18.1406 4.57812 18.1406 5.42188V21.6875C18.1406 22.5312 17.4844 23.2344 16.6406 23.2344ZM7.35938 4.53125C6.89062 4.53125 6.51562 4.95312 6.51562 5.42188V21.6875C6.51562 22.1562 6.89062 22.5781 7.35938 22.5781H16.6406C17.1094 22.5781 17.4844 22.1562 17.4844 21.6875V5.42188C17.4844 4.95312 17.1094 4.53125 16.6406 4.53125H7.35938Z" fill="#99AF61"/>
<path fill-rule="evenodd" clip-rule="evenodd" d="M14.5315 19.4845C14.2502 19.4845 13.9221 19.3908 13.594 19.1095C13.0315 18.5939 12.3284 19.1095 12.3284 19.1095C11.9065 19.4377 10.969 19.8127 10.219 19.1095C9.65648 18.5939 9.09398 19.1095 9.09398 19.1095C8.71898 19.3908 7.87523 19.8127 7.12523 19.1095C6.89085 18.8752 6.6096 18.8283 6.2346 18.922C6.09398 18.9689 5.90648 18.8752 5.8596 18.6877C5.81273 18.547 5.90648 18.3595 6.09398 18.3127C6.65648 18.1252 7.12523 18.2658 7.5471 18.6408C8.06273 19.1095 8.62523 18.6408 8.6721 18.5939C9.00023 18.3127 9.89085 17.9377 10.6409 18.6408C11.2034 19.1095 11.9065 18.5939 11.9065 18.5939C12.3284 18.3127 13.2659 17.9377 14.0159 18.6408C14.5784 19.1095 15.094 18.6408 15.1409 18.5939C15.469 18.3127 16.3596 17.9377 17.1096 18.6408C17.2971 18.7814 17.5315 18.8752 17.8127 18.8283C17.9534 18.8283 18.1409 18.922 18.1409 19.1095C18.1877 19.297 18.0471 19.4377 17.8596 19.4845C17.4377 19.5314 17.0159 19.3908 16.6877 19.1095C16.1721 18.6408 15.6096 19.0627 15.5627 19.1095C15.3752 19.297 15.0002 19.4845 14.5315 19.4845Z" fill="#99AF61"/>
<path fill-rule="evenodd" clip-rule="evenodd" d="M17.8125 6.3125H6.1875C6 6.3125 5.85938 6.17188 5.85938 5.98438C5.85938 5.79688 6 5.65625 6.1875 5.65625H17.8125C18 5.65625 18.1406 5.79688 18.1406 5.98438C18.1406 6.17188 18 6.3125 17.8125 6.3125Z" fill="#99AF61"/>
<path fill-rule="evenodd" clip-rule="evenodd" d="M17.8125 21.4062H6.1875C6 21.4062 5.85938 21.2188 5.85938 21.0781C5.85938 20.8906 6 20.75 6.1875 20.75H17.8125C18 20.75 18.1406 20.8906 18.1406 21.0781C18.1406 21.2188 18 21.4062 17.8125 21.4062Z" fill="#99AF61"/>
<path fill-rule="evenodd" clip-rule="evenodd" d="M16.7812 4.53125C16.5938 4.53125 16.4531 4.39062 16.4531 4.20312V3.26562H7.6875V4.20312C7.6875 4.39062 7.54688 4.53125 7.35938 4.53125C7.17188 4.53125 7.03125 4.39062 7.03125 4.20312V2.9375C7.03125 2.75 7.17188 2.60938 7.35938 2.60938H16.7812C16.9688 2.60938 17.1094 2.75 17.1094 2.9375V4.20312C17.1094 4.39062 16.9688 4.53125 16.7812 4.53125Z" fill="#99AF61"/>
<path fill-rule="evenodd" clip-rule="evenodd" d="M16.6875 24.5H7.3125C7.125 24.5 6.98438 24.3594 6.98438 24.1719V22.9062C6.98438 22.7188 7.125 22.5781 7.3125 22.5781C7.45312 22.5781 7.64062 22.7188 7.64062 22.9062V23.8438H16.3594V22.9062C16.3594 22.7188 16.5469 22.5781 16.6875 22.5781C16.875 22.5781 17.0156 22.7188 17.0156 22.9062V24.1719C17.0156 24.3594 16.875 24.5 16.6875 24.5Z" fill="#99AF61"/>
<path fill-rule="evenodd" clip-rule="evenodd" d="M12 16.3438C9.75 16.3438 7.92188 14.5156 7.92188 12.2656C7.92188 10.0156 9.75 8.14062 12 8.14062C14.25 8.14062 16.0781 10.0156 16.0781 12.2656C16.0781 14.5156 14.25 16.3438 12 16.3438ZM12 8.79688C10.0781 8.79688 8.57812 10.3438 8.57812 12.2656C8.57812 14.1406 10.0781 15.6875 12 15.6875C13.9219 15.6875 15.4219 14.1406 15.4219 12.2656C15.4219 10.3438 13.9219 8.79688 12 8.79688Z" fill="#99AF61"/>
<path fill-rule="evenodd" clip-rule="evenodd" d="M9.74995 15.5937C9.6562 15.5937 9.60932 15.5937 9.56245 15.5468C9.42182 15.453 9.37495 15.2187 9.4687 15.078C10.1249 14.2343 10.4531 13.2499 10.4531 12.2187C10.4531 11.1874 10.1249 10.203 9.51557 9.40616C9.42182 9.26553 9.4687 9.03116 9.60932 8.93741C9.74995 8.84366 9.93745 8.84366 10.0781 8.98428C10.7343 9.92178 11.1093 11.0468 11.1093 12.2187C11.1093 13.3905 10.7343 14.5155 9.98432 15.4999C9.93745 15.5468 9.8437 15.5937 9.74995 15.5937Z" fill="#99AF61"/>
<path fill-rule="evenodd" clip-rule="evenodd" d="M14.2031 15.6405C14.1094 15.6405 14.0156 15.5937 13.9219 15.4999C13.2656 14.6093 12.8906 13.4843 12.8906 12.3124C12.8906 11.1405 13.2656 9.96866 14.0156 9.03116C14.1094 8.89053 14.2969 8.89053 14.4375 8.98428C14.5781 9.07803 14.625 9.31241 14.5312 9.45303C13.875 10.2499 13.5469 11.2812 13.5469 12.3124C13.5469 13.3437 13.875 14.328 14.4844 15.1249C14.5781 15.2655 14.5312 15.4999 14.3906 15.5937C14.3438 15.6405 14.25 15.6405 14.2031 15.6405Z" fill="#99AF61"/>
<path fill-rule="evenodd" clip-rule="evenodd" d="M8.39062 3.26562C8.29688 3.26562 8.15625 3.21875 8.10938 3.07812L6.89062 1.01562C6.79688 0.828125 6.84375 0.640625 7.03125 0.546875C7.17188 0.453125 7.35938 0.5 7.45312 0.6875L8.67188 2.75C8.76562 2.9375 8.71875 3.125 8.57812 3.21875C8.48438 3.26562 8.4375 3.26562 8.39062 3.26562Z" fill="#99AF61"/>
</g>
<defs>
<clipPath id="clip0_221049_2327">
<rect width="24" height="24" fill="white" transform="translate(0 0.5)"/>
</clipPath>
</defs>
</svg>
