<svg width="24" height="24" viewBox="0 0 24 24" fill="none" xmlns="http://www.w3.org/2000/svg">
<path d="M21.855 15.214C22.0842 15.0297 22.2713 14.7985 22.4036 14.5359C22.536 14.2733 22.6105 13.9853 22.6223 13.6915C22.634 13.3976 22.5826 13.1047 22.4716 12.8324C22.3606 12.56 22.1926 12.3146 21.9788 12.1127C22.1971 11.7838 22.3162 11.399 22.3219 11.0042C22.3276 10.6094 22.2197 10.2214 22.011 9.88623C21.8024 9.55108 21.5017 9.28301 21.1449 9.11395C20.7882 8.94489 20.3903 8.88198 19.9988 8.93272C19.9478 8.66783 19.8442 8.41586 19.6941 8.19171C19.544 7.96756 19.3505 7.77578 19.125 7.62772C19.085 7.31415 18.9829 7.01169 18.8248 6.73799C18.6666 6.46428 18.4556 6.2248 18.2039 6.03352C17.9522 5.84223 17.665 5.70297 17.3589 5.62386C17.0529 5.54474 16.7341 5.52736 16.4213 5.57272C15.915 3.57022 13.11 3.21022 12.09 4.98022C10.3613 3.92272 8.09253 5.62522 8.58753 7.55647C8.22414 7.52952 7.86019 7.60075 7.53378 7.76272C7.29615 7.42409 6.96628 7.16083 6.58339 7.00422C6.20049 6.84762 5.78068 6.80426 5.37386 6.8793C4.96704 6.95435 4.59032 7.14464 4.2885 7.42755C3.98668 7.71046 3.77245 8.0741 3.67128 8.47522C3.23374 8.3979 2.78299 8.45764 2.3807 8.64626C1.9784 8.83488 1.6442 9.14318 1.4238 9.52899C1.2034 9.91479 1.10756 10.3593 1.1494 10.8016C1.19124 11.244 1.36871 11.6626 1.65753 12.0002C1.44701 12.4621 1.40683 12.9837 1.54411 13.4724C1.68139 13.9611 1.98727 14.3855 2.40753 14.6702C1.56138 16.2488 1.12068 18.0129 1.12503 19.804C1.12503 19.9034 1.16454 19.9988 1.23487 20.0691C1.30519 20.1395 1.40058 20.179 1.50003 20.179H22.5C22.5995 20.179 22.6949 20.1395 22.7652 20.0691C22.8355 19.9988 22.875 19.9034 22.875 19.804C22.8764 18.2176 22.5281 16.6504 21.855 15.214ZM19.29 9.37522C19.2789 9.62889 19.1942 9.87384 19.0463 10.0802C19.0062 10.1364 18.9825 10.2026 18.9777 10.2715C18.9728 10.3403 18.9871 10.4092 19.0189 10.4705C19.0507 10.5317 19.0988 10.583 19.1579 10.6187C19.217 10.6544 19.2848 10.6731 19.3538 10.6727C19.7888 10.6277 19.9125 10.039 20.0063 9.68647C20.2826 9.62798 20.5704 9.66097 20.8263 9.78047C21.0822 9.89996 21.2923 10.0995 21.4248 10.3489C21.5574 10.5983 21.6052 10.884 21.561 11.163C21.5168 11.4419 21.3831 11.699 21.18 11.8952C21.1378 11.9354 21.1056 11.9849 21.0859 12.0398C21.0661 12.0946 21.0595 12.1533 21.0664 12.2112C21.0733 12.2691 21.0936 12.3245 21.1257 12.3732C21.1578 12.4218 21.2008 12.4623 21.2513 12.4915C21.4184 12.5935 21.5603 12.7319 21.6664 12.8964C21.7726 13.0609 21.8403 13.2472 21.8644 13.4415C21.8886 13.6358 21.8686 13.833 21.8059 14.0185C21.7432 14.2039 21.6395 14.3729 21.5025 14.5127C20.1392 12.0718 17.8907 10.2475 15.2213 9.41647C15.3706 9.30246 15.5423 9.22117 15.7252 9.17788C15.908 9.13459 16.0979 9.13028 16.2825 9.16522C16.3707 9.18318 16.4624 9.16882 16.5409 9.12475C16.6194 9.08069 16.6794 9.00987 16.71 8.92522C17.1975 7.53022 19.3388 7.87522 19.29 9.37522ZM9.37503 6.52897C9.48667 6.20088 9.70013 5.91699 9.98433 5.71865C10.2685 5.5203 10.6086 5.41785 10.9551 5.42622C11.3015 5.43459 11.6363 5.55334 11.9106 5.76517C12.1849 5.97701 12.3844 6.27087 12.48 6.60397C12.4931 6.65151 12.5153 6.69602 12.5455 6.73495C12.5758 6.77388 12.6134 6.80646 12.6562 6.83084C12.6991 6.85522 12.7463 6.87092 12.7952 6.87703C12.8441 6.88314 12.8938 6.87956 12.9413 6.86647C13.5638 6.62272 12.9413 5.79022 12.6938 5.46772C12.8559 5.15705 13.1141 4.90716 13.43 4.75538C13.7458 4.60359 14.1023 4.55805 14.4461 4.62555C14.79 4.69306 15.1028 4.86999 15.3378 5.12991C15.5728 5.38984 15.7174 5.71882 15.75 6.06772C15.7546 6.12534 15.7725 6.18113 15.8022 6.23072C15.8319 6.28031 15.8727 6.32236 15.9213 6.35358C15.97 6.38481 16.0252 6.40436 16.0826 6.41071C16.1401 6.41707 16.1982 6.41006 16.2525 6.39022C16.645 6.25503 17.0744 6.2753 17.4524 6.44687C17.8304 6.61844 18.1284 6.92828 18.285 7.31272C17.8576 7.24858 17.4208 7.31789 17.0343 7.51117C16.6477 7.70446 16.3302 8.01231 16.125 8.39272C15.7916 8.37887 15.4596 8.4444 15.1565 8.58391C14.8533 8.72343 14.5876 8.93295 14.3813 9.19522C13.1146 8.90415 11.8046 8.85201 10.5188 9.04147C10.3464 8.50974 9.97383 8.06594 9.48003 7.80397C9.37541 7.61023 9.31206 7.39691 9.29399 7.17747C9.27591 6.95802 9.30351 6.73721 9.37503 6.52897ZM2.21253 12.8965C2.21224 12.6298 2.29049 12.3689 2.43753 12.1465C2.4882 12.0692 2.50857 11.976 2.49473 11.8846C2.48089 11.7933 2.43382 11.7102 2.36253 11.6515C2.21226 11.5208 2.0916 11.3596 2.00864 11.1786C1.92568 10.9976 1.88232 10.8009 1.88147 10.6018C1.88061 10.4027 1.92228 10.2057 2.00369 10.024C2.0851 9.84226 2.20436 9.68002 2.35351 9.5481C2.50266 9.41618 2.67826 9.31762 2.86856 9.25902C3.05887 9.20042 3.25949 9.18313 3.45701 9.2083C3.65453 9.23347 3.84441 9.30052 4.01393 9.40497C4.18346 9.50942 4.32873 9.64886 4.44003 9.81397C4.49501 9.89617 4.58025 9.95333 4.67717 9.97299C4.77409 9.99266 4.87486 9.97324 4.95753 9.91897C5.44503 9.51397 4.72128 8.97397 4.38378 8.74897C4.43765 8.45303 4.58524 8.18226 4.80476 7.97661C5.02428 7.77096 5.3041 7.64134 5.60292 7.60688C5.90174 7.57242 6.20372 7.63494 6.46429 7.78522C6.72486 7.93549 6.93021 8.16556 7.05003 8.44147C7.07273 8.49443 7.10733 8.54145 7.15114 8.57887C7.19495 8.6163 7.24679 8.64313 7.30265 8.65727C7.35851 8.67142 7.41687 8.6725 7.47321 8.66044C7.52956 8.64838 7.58236 8.62349 7.62753 8.58772C7.79827 8.46289 7.99496 8.37819 8.20296 8.33991C8.41097 8.30163 8.62493 8.31076 8.82892 8.36662C9.03291 8.42248 9.22167 8.52364 9.38115 8.66255C9.54063 8.80147 9.66672 8.97457 9.75003 9.16897C8.31815 9.46626 6.96172 10.0518 5.76327 10.8898C4.56482 11.7279 3.54939 12.8011 2.77878 14.044C2.599 13.9124 2.45363 13.7394 2.35505 13.5396C2.25646 13.3398 2.20757 13.1192 2.21253 12.8965ZM1.87503 19.429C1.94686 17.6001 2.51125 15.8246 3.5086 14.29C4.50595 12.7554 5.89922 11.5186 7.54128 10.7102C13.9463 7.42897 21.9825 12.259 22.125 19.429H1.87503Z" fill="#99AF61"/>
<path d="M6.37486 13.3164C6.24656 13.3164 6.12352 13.3674 6.0328 13.4581C5.94208 13.5488 5.89111 13.6719 5.89111 13.8002C5.89111 13.9285 5.94208 14.0515 6.0328 14.1422C6.12352 14.2329 6.24656 14.2839 6.37486 14.2839C6.50316 14.2839 6.62621 14.2329 6.71693 14.1422C6.80765 14.0515 6.85861 13.9285 6.85861 13.8002C6.85861 13.6719 6.80765 13.5488 6.71693 13.4581C6.62621 13.3674 6.50316 13.3164 6.37486 13.3164Z" fill="#99AF61"/>
<path d="M10.0013 13.6538C9.88079 13.6644 9.76868 13.7198 9.68702 13.809C9.60535 13.8982 9.56006 14.0148 9.56006 14.1357C9.56006 14.2566 9.60535 14.3732 9.68702 14.4624C9.76868 14.5516 9.88079 14.6069 10.0013 14.6176C10.1217 14.6069 10.2338 14.5516 10.3155 14.4624C10.3972 14.3732 10.4425 14.2566 10.4425 14.1357C10.4425 14.0148 10.3972 13.8982 10.3155 13.809C10.2338 13.7198 10.1217 13.6644 10.0013 13.6538Z" fill="#99AF61"/>
<path d="M6.00012 16.6465C5.87033 16.6465 5.74585 16.698 5.65408 16.7898C5.5623 16.8816 5.51074 17.0061 5.51074 17.1359C5.51074 17.2656 5.5623 17.3901 5.65408 17.4819C5.74585 17.5737 5.87033 17.6252 6.00012 17.6252C6.12991 17.6252 6.25438 17.5737 6.34616 17.4819C6.43793 17.3901 6.48949 17.2656 6.48949 17.1359C6.48949 17.0061 6.43793 16.8816 6.34616 16.7898C6.25438 16.698 6.12991 16.6465 6.00012 16.6465Z" fill="#99AF61"/>
<path d="M11.4373 16.939C11.3168 16.9496 11.2047 17.005 11.1231 17.0942C11.0414 17.1834 10.9961 17.2999 10.9961 17.4208C10.9961 17.5418 11.0414 17.6583 11.1231 17.7475C11.2047 17.8367 11.3168 17.8921 11.4373 17.9027C11.5578 17.8921 11.6699 17.8367 11.7515 17.7475C11.8332 17.6583 11.8785 17.5418 11.8785 17.4208C11.8785 17.2999 11.8332 17.1834 11.7515 17.0942C11.6699 17.005 11.5578 16.9496 11.4373 16.939Z" fill="#99AF61"/>
<path d="M7.99882 15.375C7.87835 15.3856 7.76624 15.441 7.68458 15.5302C7.60291 15.6194 7.55762 15.7359 7.55762 15.8569C7.55762 15.9778 7.60291 16.0944 7.68458 16.1835C7.76624 16.2727 7.87835 16.3281 7.99882 16.3387C8.11928 16.3281 8.23139 16.2727 8.31306 16.1835C8.39472 16.0944 8.44002 15.9778 8.44002 15.8569C8.44002 15.7359 8.39472 15.6194 8.31306 15.5302C8.23139 15.441 8.11928 15.3856 7.99882 15.375Z" fill="#99AF61"/>
<path d="M15.8435 12.27C15.7231 12.2807 15.611 12.336 15.5293 12.4252C15.4476 12.5144 15.4023 12.631 15.4023 12.7519C15.4023 12.8728 15.4476 12.9894 15.5293 13.0786C15.611 13.1678 15.7231 13.2231 15.8435 13.2338C15.964 13.2231 16.0761 13.1678 16.1578 13.0786C16.2394 12.9894 16.2847 12.8728 16.2847 12.7519C16.2847 12.631 16.2394 12.5144 16.1578 12.4252C16.0761 12.336 15.964 12.2807 15.8435 12.27Z" fill="#99AF61"/>
<path d="M17.2801 15.5513C17.1596 15.5619 17.0475 15.6173 16.9658 15.7065C16.8842 15.7957 16.8389 15.9122 16.8389 16.0331C16.8389 16.1541 16.8842 16.2706 16.9658 16.3598C17.0475 16.449 17.1596 16.5044 17.2801 16.515C17.4005 16.5044 17.5126 16.449 17.5943 16.3598C17.676 16.2706 17.7213 16.1541 17.7213 16.0331C17.7213 15.9122 17.676 15.7957 17.5943 15.7065C17.5126 15.6173 17.4005 15.5619 17.2801 15.5513Z" fill="#99AF61"/>
<path d="M13.845 13.9951C13.7245 14.0058 13.6124 14.0611 13.5308 14.1503C13.4491 14.2395 13.4038 14.3561 13.4038 14.477C13.4038 14.5979 13.4491 14.7145 13.5308 14.8037C13.6124 14.8929 13.7245 14.9482 13.845 14.9589C13.9655 14.9482 14.0776 14.8929 14.1592 14.8037C14.2409 14.7145 14.2862 14.5979 14.2862 14.477C14.2862 14.3561 14.2409 14.2395 14.1592 14.1503C14.0776 14.0611 13.9655 14.0058 13.845 13.9951Z" fill="#99AF61"/>
</svg>
