<svg width="24" height="24" viewBox="0 0 24 24" fill="none" xmlns="http://www.w3.org/2000/svg">
<g clip-path="url(#clip0_220877_26520)">
<path d="M20.6973 17.3448H21.6948C21.7955 17.3448 21.8922 17.3048 21.9634 17.2336C22.0347 17.1623 22.0747 17.0657 22.0747 16.9649C22.0747 14.1493 20.4181 12.5212 19.1585 11.6903H19.9912C20.092 11.6903 20.1887 11.6503 20.2599 11.579C20.3312 11.5078 20.3712 11.4111 20.3712 11.3104C20.3712 7.81405 17.7982 6.14663 16.6912 5.59188L16.6621 5.57732V4.43742C16.6606 3.52589 16.2977 2.65216 15.653 2.00779C15.0083 1.36342 14.1343 1.001 13.2228 1H12.8428V3.46978C12.3551 3.43855 11.8655 3.48559 11.3926 3.6091L11.4338 3.76742L11.3895 3.61036L0 6.84007L0.874554 9.95895C1.01941 10.4831 1.33852 10.9423 1.7793 11.2608C2.22008 11.5794 2.75622 11.7382 3.29937 11.7112L8.93932 11.4529L8.73287 23H23.2349C23.3357 23 23.4323 22.96 23.5036 22.8887C23.5748 22.8175 23.6149 22.7208 23.6149 22.62C23.6149 19.8045 21.9645 18.1789 20.6973 17.3448ZM21.3034 16.5849H19.3478L18.2713 12.0418C19.3377 12.6263 21.1406 13.9961 21.3034 16.5849ZM19.5999 10.9304H18.0085L17.3119 7.97933L16.9952 6.82297C16.9731 6.74444 16.949 6.66719 16.9224 6.59056C18.0534 7.29729 19.4593 8.62907 19.5999 10.9304ZM15.0821 22.2401L14.3101 15.8016L13.5559 15.8921L14.3158 22.2401H9.50294L9.69292 11.6796C10.2636 12.1304 10.9327 12.4399 11.6457 12.583C12.3588 12.7261 13.0955 12.6986 13.7959 12.5028L13.5907 11.7708C12.9309 11.9551 12.2339 11.9603 11.5715 11.7856C10.9091 11.611 10.3052 11.2629 9.82211 10.7771L9.70305 10.6581L3.262 10.9532C2.89052 10.9721 2.52371 10.8637 2.22224 10.6458C1.92076 10.4279 1.70269 10.1137 1.60409 9.75504L0.937248 7.36632L1.75291 7.13518L2.54324 9.61572L3.26707 9.38521L2.48434 6.92683L11.5953 4.3418C12.1079 4.2081 12.6428 4.18266 13.1658 4.26707L13.6059 4.338V1.78653C14.2438 1.87898 14.8272 2.19788 15.2494 2.68495C15.6716 3.17202 15.9044 3.79474 15.9054 4.43932V6.1669L15.9503 6.25112C16.0824 6.49733 16.1871 6.75725 16.2625 7.02625L16.5747 8.16172L17.3936 11.6175L17.3891 11.627H17.3961L19.9089 22.2369L15.0821 22.2401ZM20.6872 22.2401L19.5828 17.5773C20.615 18.0934 22.6668 19.4625 22.8397 22.2401H20.6872Z" fill="#99AF61" stroke="#99AF61" stroke-width="0.5"/>
<path d="M10.3237 6.56222L10.293 7.58496L11.1796 7.61156L11.2102 6.58882L10.3237 6.56222Z" fill="#99AF61"/>
</g>
<defs>
<clipPath id="clip0_220877_26520">
<rect width="24" height="24" fill="white"/>
</clipPath>
</defs>
</svg>
