<svg width="20" height="20" viewBox="0 0 20 20" fill="none" xmlns="http://www.w3.org/2000/svg">
<g clip-path="url(#clip0_220888_1102)">
<path d="M16.6667 13.2802V15.2802C16.6675 15.4659 16.6294 15.6497 16.555 15.8198C16.4807 15.9899 16.3716 16.1426 16.2348 16.2681C16.0979 16.3937 15.9364 16.4892 15.7605 16.5487C15.5847 16.6082 15.3983 16.6303 15.2134 16.6136C13.1619 16.3907 11.1914 15.6897 9.46004 14.5669C7.84926 13.5433 6.48359 12.1777 5.46004 10.5669C4.33336 8.8277 3.6322 6.84756 3.41337 4.78689C3.39671 4.60254 3.41862 4.41673 3.4777 4.24131C3.53679 4.06589 3.63175 3.90469 3.75655 3.76797C3.88134 3.63126 4.03324 3.52203 4.20256 3.44724C4.37189 3.37245 4.55493 3.33374 4.74004 3.33356H6.74004C7.06357 3.33038 7.37723 3.44495 7.62254 3.65592C7.86786 3.86689 8.02809 4.15986 8.07337 4.48023C8.15779 5.12027 8.31434 5.74871 8.54004 6.35356C8.62973 6.59218 8.64915 6.8515 8.59597 7.10081C8.5428 7.35012 8.41928 7.57897 8.24004 7.76023L7.39337 8.60689C8.34241 10.2759 9.72434 11.6579 11.3934 12.6069L12.24 11.7602C12.4213 11.581 12.6501 11.4575 12.8994 11.4043C13.1488 11.3511 13.4081 11.3705 13.6467 11.4602C14.2516 11.6859 14.88 11.8425 15.52 11.9269C15.8439 11.9726 16.1396 12.1357 16.3511 12.3852C16.5625 12.6348 16.6748 12.9533 16.6667 13.2802Z" stroke="#1F2937" stroke-linecap="round" stroke-linejoin="round"/>
</g>
<defs>
<clipPath id="clip0_220888_1102">
<rect width="16" height="16" fill="white" transform="translate(2 2)"/>
</clipPath>
</defs>
</svg>
