<svg width="20" height="20" viewBox="0 0 20 20" fill="none" xmlns="http://www.w3.org/2000/svg">
<path d="M5.99992 14.6668C7.47268 14.6668 8.66658 13.4729 8.66658 12.0002C8.66658 10.5274 7.47268 9.3335 5.99992 9.3335C4.52716 9.3335 3.33325 10.5274 3.33325 12.0002C3.33325 13.4729 4.52716 14.6668 5.99992 14.6668Z" stroke="#1F2937" stroke-linecap="round" stroke-linejoin="round"/>
<path d="M13.9999 14.6668C15.4727 14.6668 16.6666 13.4729 16.6666 12.0002C16.6666 10.5274 15.4727 9.3335 13.9999 9.3335C12.5272 9.3335 11.3333 10.5274 11.3333 12.0002C11.3333 13.4729 12.5272 14.6668 13.9999 14.6668Z" stroke="black" stroke-linecap="round" stroke-linejoin="round"/>
<path d="M11.3334 11.9998C11.3334 11.6462 11.1929 11.3071 10.9429 11.057C10.6928 10.807 10.3537 10.6665 10.0001 10.6665C9.64646 10.6665 9.30732 10.807 9.05727 11.057C8.80722 11.3071 8.66675 11.6462 8.66675 11.9998" stroke="black" stroke-linecap="round" stroke-linejoin="round"/>
<path d="M3.66675 10.6668L5.33341 6.66683C5.80008 5.80016 6.26675 5.3335 7.33342 5.3335" stroke="black" stroke-linecap="round" stroke-linejoin="round"/>
<path d="M16.3334 10.6668L14.6667 6.66683C14.2001 5.80016 13.6667 5.3335 12.6667 5.3335" stroke="black" stroke-linecap="round" stroke-linejoin="round"/>
</svg>
