<svg width="16" height="16" viewBox="0 0 16 16" fill="none" xmlns="http://www.w3.org/2000/svg">
<path d="M6.04004 7.93377L11.42 2.56043C11.5954 2.3794 11.8051 2.23506 12.0368 2.13584C12.2685 2.03662 12.5176 1.98448 12.7696 1.98248C13.0217 1.98048 13.2716 2.02865 13.5048 2.12418C13.7381 2.21971 13.95 2.36069 14.1282 2.53892C14.3064 2.71715 14.4474 2.92905 14.543 3.1623C14.6385 3.39555 14.6867 3.64547 14.6847 3.89751C14.6827 4.14956 14.6305 4.39868 14.5313 4.63038C14.4321 4.86208 14.2877 5.07173 14.1067 5.2471L8.73337 10.6338" stroke="#6B7280" stroke-linecap="round" stroke-linejoin="round"/>
<path d="M4.71335 9.95996C3.60668 9.95996 2.71335 10.86 2.71335 11.9733C2.71335 12.86 1.04668 12.9866 1.38001 13.32C2.10001 14.0533 3.04001 14.6666 4.04668 14.6666C5.51335 14.6666 6.71335 13.4666 6.71335 11.9733C6.71422 11.7098 6.66319 11.4487 6.56315 11.2049C6.46312 10.9611 6.31604 10.7394 6.13033 10.5524C5.94461 10.3655 5.72389 10.2169 5.48076 10.1153C5.23764 10.0136 4.97687 9.96083 4.71335 9.95996Z" stroke="#6B7280" stroke-linecap="round" stroke-linejoin="round"/>
</svg>
