<svg width="20" height="20" viewBox="0 0 20 20" fill="none" xmlns="http://www.w3.org/2000/svg">
<path d="M14.6666 11.3333C15.6599 10.36 16.6666 9.19333 16.6666 7.66667C16.6666 6.69421 16.2803 5.76158 15.5926 5.07394C14.905 4.38631 13.9724 4 12.9999 4C11.8266 4 10.9999 4.33333 9.99992 5.33333C8.99992 4.33333 8.17325 4 6.99992 4C6.02746 4 5.09483 4.38631 4.40719 5.07394C3.71956 5.76158 3.33325 6.69421 3.33325 7.66667C3.33325 9.2 4.33325 10.3667 5.33325 11.3333L9.99992 16L14.6666 11.3333Z" stroke="#1F2937" stroke-linecap="round" stroke-linejoin="round"/>
<path d="M9.99991 5.3335L8.02657 7.30683C7.89112 7.4413 7.78361 7.60124 7.71025 7.77745C7.63689 7.95365 7.59912 8.14263 7.59912 8.3335C7.59912 8.52436 7.63689 8.71334 7.71025 8.88954C7.78361 9.06575 7.89112 9.22569 8.02657 9.36016C8.57324 9.90683 9.44657 9.92683 10.0266 9.40683L11.4066 8.14016C11.7525 7.82629 12.2028 7.65242 12.6699 7.65242C13.137 7.65242 13.5873 7.82629 13.9332 8.14016L15.9066 9.9135" stroke="black" stroke-linecap="round" stroke-linejoin="round"/>
<path d="M14.0001 11.9998L12.6667 10.6665" stroke="black" stroke-linecap="round" stroke-linejoin="round"/>
<path d="M12.0001 13.9998L10.6667 12.6665" stroke="black" stroke-linecap="round" stroke-linejoin="round"/>
</svg>
