<svg width="24" height="24" viewBox="0 0 24 24" fill="none" xmlns="http://www.w3.org/2000/svg">
<path d="M21.0002 0.75H17.4283C16.9361 0.75 16.5002 1.06406 16.3408 1.52812L14.8174 6H9.23457C8.89707 6 8.62519 6.27188 8.62519 6.60938V11.25V15.2203L3.45957 20.3859L2.6627 21.1828C2.51738 21.3281 2.51738 21.5672 2.6627 21.7125C3.65645 22.7016 4.97363 23.25 6.37519 23.25C7.17207 23.25 7.93613 23.0766 8.63457 22.7438C8.63457 22.7531 8.63457 22.7578 8.63925 22.7672C8.6955 23.0438 8.94394 23.2547 9.23457 23.2547H17.0158C17.3111 23.2547 17.5549 23.0438 17.6111 22.7672C17.6205 22.7297 17.6252 22.6875 17.6252 22.6453V21.3797V11.25V6.60938C17.6252 6.27188 17.3533 6 17.0158 6H15.6096L17.0533 1.77187C17.1096 1.60781 17.2596 1.5 17.433 1.5H21.0002C21.2064 1.5 21.3752 1.33125 21.3752 1.125C21.3752 0.91875 21.2064 0.75 21.0002 0.75ZM14.5596 6.75L13.1533 10.875H9.37519V6.75H14.5596ZM16.8752 21H10.683C11.2924 20.1281 11.6252 19.0875 11.6252 18C11.6252 16.5984 11.0814 15.2812 10.0877 14.2875C9.94238 14.1422 9.70332 14.1422 9.558 14.2875L9.37519 14.4703V11.625H13.4205H16.8752V21ZM6.75019 18.9047L8.47988 20.6344C7.983 21.0328 7.383 21.2812 6.75019 21.3516V18.9047ZM9.00957 20.1047L7.27988 18.375H9.72675C9.66113 19.0125 9.41269 19.6078 9.00957 20.1047ZM7.27988 17.625L9.00957 15.8953C9.408 16.3922 9.65644 16.9922 9.72675 17.625H7.27988ZM6.00019 18.9047V21.3516C5.36269 21.2812 4.76738 21.0375 4.27051 20.6344L6.00019 18.9047ZM3.46895 21.4359L3.73613 21.1688C4.47676 21.7875 5.40019 22.125 6.37519 22.125C7.47675 22.125 8.51269 21.6938 9.29082 20.9156C10.8096 19.3969 10.8939 16.9781 9.54394 15.3609L9.81113 15.0938C10.5002 15.9047 10.8752 16.9219 10.8752 18C10.8752 19.1672 10.4346 20.2687 9.62832 21.1078C9.60488 21.1312 9.58144 21.1547 9.558 21.1781C9.32832 21.4078 9.07988 21.6094 8.81269 21.7828C8.80332 21.7875 8.79394 21.7969 8.78457 21.8016C8.07207 22.2563 7.24238 22.4953 6.37988 22.4953C5.29707 22.5 4.27988 22.125 3.46895 21.4359ZM16.8752 22.5H9.37519V22.3078C9.61425 22.1437 9.83925 21.9563 10.0502 21.75H16.8752V22.5ZM16.8752 6.75V10.875H13.9455L15.3518 6.75H16.8752Z" fill="#99AF61"/>
<path d="M15.75 18C15.9563 18 16.125 17.8313 16.125 17.625V12.75C16.125 12.5437 15.9563 12.375 15.75 12.375C15.5437 12.375 15.375 12.5437 15.375 12.75V17.625C15.375 17.8313 15.5437 18 15.75 18Z" fill="#99AF61"/>
<path d="M15.75 20.25C15.9563 20.25 16.125 20.0813 16.125 19.875V19.125C16.125 18.9187 15.9563 18.75 15.75 18.75C15.5437 18.75 15.375 18.9187 15.375 19.125V19.875C15.375 20.0813 15.5437 20.25 15.75 20.25Z" fill="#99AF61"/>
</svg>
