<svg width="24" height="25" viewBox="0 0 24 25" fill="none" xmlns="http://www.w3.org/2000/svg">
<path d="M4.125 18.875C5.80214 18.875 7.5 18.3597 7.5 17.375V16.25C7.49995 16.2367 7.49925 16.2235 7.49784 16.2103C7.45242 15.2516 5.77927 14.75 4.125 14.75C2.47073 14.75 0.797578 15.2516 0.752156 16.2103C0.75075 16.2235 0.750028 16.2367 0.75 16.25V17.375C0.75 18.3597 2.44786 18.875 4.125 18.875ZM4.125 15.5C5.83012 15.5 6.75 16.0323 6.75 16.25C6.75 16.4677 5.83012 17 4.125 17C2.41988 17 1.5 16.4677 1.5 16.25C1.5 16.0323 2.41988 15.5 4.125 15.5ZM1.5 17.2273C2.15119 17.5725 3.14138 17.75 4.125 17.75C5.10862 17.75 6.09881 17.5725 6.75 17.2273V17.375C6.75 17.5927 5.83012 18.125 4.125 18.125C2.41988 18.125 1.5 17.5927 1.5 17.375V17.2273Z" fill="#99AF61"/>
<path d="M23.0722 9.55625C23.0178 9.52264 22.9557 9.50352 22.8918 9.50061C22.828 9.49775 22.7645 9.51125 22.7073 9.53984L21.5136 10.1367C21.2646 9.50717 20.8323 8.96694 20.2727 8.58594C19.7131 8.20498 19.052 8.00084 18.375 8H8.25C7.35487 8 6.49645 8.35559 5.8635 8.9885C5.23059 9.62145 4.875 10.4799 4.875 11.375C4.875 12.2701 5.23059 13.1285 5.8635 13.7615C6.49645 14.3944 7.35487 14.75 8.25 14.75H18.375C19.0441 14.7492 19.6979 14.5499 20.2536 14.1773C20.8093 13.8046 21.2418 13.2754 21.4965 12.6567L22.292 13.187C22.3485 13.2246 22.4141 13.2463 22.4819 13.2496C22.5497 13.2528 22.6171 13.2377 22.677 13.2056C22.7368 13.1736 22.7868 13.1259 22.8217 13.0677C22.8566 13.0095 22.875 12.9429 22.875 12.875V11.75C22.9745 11.75 23.0699 11.7105 23.1402 11.6402C23.2105 11.5699 23.25 11.4745 23.25 11.375V9.875C23.25 9.81111 23.2336 9.7483 23.2025 9.69252C23.1713 9.63673 23.1265 9.58981 23.0722 9.55625ZM16.2993 8.75L16.4818 9.0238C16.7249 9.38769 16.8608 9.81256 16.8739 10.25H14.6026C14.5376 9.70423 14.3267 9.18608 13.9922 8.75H16.2993ZM8.25 14C7.73081 14 7.2233 13.8461 6.79163 13.5576C6.35995 13.2692 6.02348 12.8592 5.82483 12.3795C5.62613 11.8999 5.57414 11.3721 5.67544 10.8629C5.77673 10.3537 6.02672 9.88597 6.39384 9.51884C6.76097 9.15172 7.22869 8.90173 7.73789 8.80044C8.24709 8.69914 8.77491 8.75113 9.25453 8.94983C9.7342 9.14848 10.1442 9.48495 10.4326 9.91663C10.7211 10.3483 10.875 10.8558 10.875 11.375C10.8742 12.071 10.5974 12.7382 10.1053 13.2303C9.61317 13.7224 8.94595 13.9992 8.25 14ZM18.375 14H10.368C10.7604 13.6842 11.077 13.2845 11.2946 12.8302C11.5121 12.3759 11.625 11.8787 11.625 11.375C11.625 10.8713 11.5121 10.3741 11.2946 9.91977C11.077 9.4655 10.7604 9.0658 10.368 8.75H12.9696L13.1893 8.96966C13.4073 9.18655 13.5802 9.4445 13.698 9.72866C13.8157 10.0128 13.8758 10.3175 13.875 10.625C13.875 10.7245 13.9145 10.8199 13.9848 10.8902C14.0551 10.9605 14.1505 11 14.25 11H17.25C17.3495 11 17.4449 10.9605 17.5152 10.8902C17.5855 10.8199 17.625 10.7245 17.625 10.625V10.3223C17.6254 9.76906 17.4767 9.22592 17.1946 8.75H18.375C19.0712 8.75 19.7389 9.02656 20.2312 9.51884C20.7234 10.0111 21 10.6788 21 11.375C21 12.0712 20.7234 12.7389 20.2312 13.2312C19.7389 13.7234 19.0712 14 18.375 14ZM22.125 12.1743L21.75 11.9243V11.75H22.125V12.1743ZM22.5 11H21.75V10.8568L22.5 10.4818V11Z" fill="#99AF61"/>
<path d="M7.875 11C8.08209 11 8.25 10.8321 8.25 10.625C8.25 10.4179 8.08209 10.25 7.875 10.25C7.66791 10.25 7.5 10.4179 7.5 10.625C7.5 10.8321 7.66791 11 7.875 11Z" fill="#99AF61"/>
<path d="M9.375 10.625C9.58209 10.625 9.75 10.4571 9.75 10.25C9.75 10.0429 9.58209 9.875 9.375 9.875C9.16791 9.875 9 10.0429 9 10.25C9 10.4571 9.16791 10.625 9.375 10.625Z" fill="#99AF61"/>
<path d="M9.83545 11.75C10.0425 11.75 10.2104 11.5821 10.2104 11.375C10.2104 11.1679 10.0425 11 9.83545 11C9.62831 11 9.46045 11.1679 9.46045 11.375C9.46045 11.5821 9.62831 11.75 9.83545 11.75Z" fill="#99AF61"/>
<path d="M9.375 13.25C9.58209 13.25 9.75 13.0821 9.75 12.875C9.75 12.6679 9.58209 12.5 9.375 12.5C9.16791 12.5 9 12.6679 9 12.875C9 13.0821 9.16791 13.25 9.375 13.25Z" fill="#99AF61"/>
<path d="M7.5 12.875C7.70709 12.875 7.875 12.7071 7.875 12.5C7.875 12.2929 7.70709 12.125 7.5 12.125C7.29291 12.125 7.125 12.2929 7.125 12.5C7.125 12.7071 7.29291 12.875 7.5 12.875Z" fill="#99AF61"/>
<path d="M8.625 11.9609C8.74148 11.9609 8.83594 11.8665 8.83594 11.75C8.83594 11.6335 8.74148 11.5391 8.625 11.5391C8.50852 11.5391 8.41406 11.6335 8.41406 11.75C8.41406 11.8665 8.50852 11.9609 8.625 11.9609Z" fill="#99AF61"/>
<path d="M6.58594 11.9609C6.70242 11.9609 6.79688 11.8665 6.79688 11.75C6.79688 11.6335 6.70242 11.5391 6.58594 11.5391C6.46945 11.5391 6.375 11.6335 6.375 11.75C6.375 11.8665 6.46945 11.9609 6.58594 11.9609Z" fill="#99AF61"/>
<path d="M8.08594 13.4609C8.20242 13.4609 8.29688 13.3665 8.29688 13.25C8.29688 13.1335 8.20242 13.0391 8.08594 13.0391C7.96945 13.0391 7.875 13.1335 7.875 13.25C7.875 13.3665 7.96945 13.4609 8.08594 13.4609Z" fill="#99AF61"/>
<path d="M3.75 16.8359C3.8665 16.8359 3.96094 16.7415 3.96094 16.625C3.96094 16.5085 3.8665 16.4141 3.75 16.4141C3.6335 16.4141 3.53906 16.5085 3.53906 16.625C3.53906 16.7415 3.6335 16.8359 3.75 16.8359Z" fill="#99AF61"/>
<path d="M3 16.2969C3.1165 16.2969 3.21094 16.2024 3.21094 16.0859C3.21094 15.9695 3.1165 15.875 3 15.875C2.8835 15.875 2.78906 15.9695 2.78906 16.0859C2.78906 16.2024 2.8835 16.2969 3 16.2969Z" fill="#99AF61"/>
<path d="M5.46094 16.4609C5.57742 16.4609 5.67188 16.3665 5.67188 16.25C5.67188 16.1335 5.57742 16.0391 5.46094 16.0391C5.34445 16.0391 5.25 16.1335 5.25 16.25C5.25 16.3665 5.34445 16.4609 5.46094 16.4609Z" fill="#99AF61"/>
<path d="M8.25 9.71094C8.36648 9.71094 8.46094 9.61648 8.46094 9.5C8.46094 9.38352 8.36648 9.28906 8.25 9.28906C8.13352 9.28906 8.03906 9.38352 8.03906 9.5C8.03906 9.61648 8.13352 9.71094 8.25 9.71094Z" fill="#99AF61"/>
<path d="M6.75 10.8359C6.86648 10.8359 6.96094 10.7415 6.96094 10.625C6.96094 10.5085 6.86648 10.4141 6.75 10.4141C6.63352 10.4141 6.53906 10.5085 6.53906 10.625C6.53906 10.7415 6.63352 10.8359 6.75 10.8359Z" fill="#99AF61"/>
<path d="M4.58496 16.4243C4.75325 16.4243 4.88965 16.2879 4.88965 16.1196C4.88965 15.9513 4.75325 15.8149 4.58496 15.8149C4.41669 15.8149 4.28027 15.9513 4.28027 16.1196C4.28027 16.2879 4.41669 16.4243 4.58496 16.4243Z" fill="#99AF61"/>
<path d="M13.5 12.5H13.125C13.0255 12.5 12.9301 12.5395 12.8598 12.6098C12.7895 12.6801 12.75 12.7755 12.75 12.875C12.75 12.9745 12.7895 13.0699 12.8598 13.1402C12.9301 13.2105 13.0255 13.25 13.125 13.25H13.5C13.5995 13.25 13.6949 13.2105 13.7652 13.1402C13.8355 13.0699 13.875 12.9745 13.875 12.875C13.875 12.7755 13.8355 12.6801 13.7652 12.6098C13.6949 12.5395 13.5995 12.5 13.5 12.5Z" fill="#99AF61"/>
<path d="M16.875 12.5H15C14.9005 12.5 14.8051 12.5395 14.7348 12.6098C14.6645 12.6801 14.625 12.7755 14.625 12.875C14.625 12.9745 14.6645 13.0699 14.7348 13.1402C14.8051 13.2105 14.9005 13.25 15 13.25H16.875C16.9745 13.25 17.0699 13.2105 17.1402 13.1402C17.2105 13.0699 17.25 12.9745 17.25 12.875C17.25 12.7755 17.2105 12.6801 17.1402 12.6098C17.0699 12.5395 16.9745 12.5 16.875 12.5Z" fill="#99AF61"/>
</svg>
