<svg width="40" height="40" viewBox="0 0 40 40" fill="none" xmlns="http://www.w3.org/2000/svg">
<g filter="url(#filter0_d_220905_8293)">
<path d="M1 8C1 3.58172 4.58172 0 9 0H31C35.4183 0 39 3.58172 39 8V30C39 34.4183 35.4183 38 31 38H9C4.58172 38 1 34.4183 1 30V8Z" fill="white"/>
<path d="M9 0.5H31C35.1421 0.5 38.5 3.85786 38.5 8V30C38.5 34.1421 35.1421 37.5 31 37.5H9C4.85786 37.5 1.5 34.1421 1.5 30V8C1.5 3.85786 4.85786 0.5 9 0.5Z" stroke="#E5E7EB"/>
<path d="M14 15H26" stroke="#1F2937" stroke-linecap="round" stroke-linejoin="round"/>
<path d="M14 19H26" stroke="#1F2937" stroke-linecap="round" stroke-linejoin="round"/>
<path d="M14 23H26" stroke="#1F2937" stroke-linecap="round" stroke-linejoin="round"/>
</g>
<defs>
<filter id="filter0_d_220905_8293" x="0" y="0" width="40" height="40" filterUnits="userSpaceOnUse" color-interpolation-filters="sRGB">
<feFlood flood-opacity="0" result="BackgroundImageFix"/>
<feColorMatrix in="SourceAlpha" type="matrix" values="0 0 0 0 0 0 0 0 0 0 0 0 0 0 0 0 0 0 127 0" result="hardAlpha"/>
<feOffset dy="1"/>
<feGaussianBlur stdDeviation="0.5"/>
<feComposite in2="hardAlpha" operator="out"/>
<feColorMatrix type="matrix" values="0 0 0 0 0 0 0 0 0 0 0 0 0 0 0 0 0 0 0.05 0"/>
<feBlend mode="normal" in2="BackgroundImageFix" result="effect1_dropShadow_220905_8293"/>
<feBlend mode="normal" in="SourceGraphic" in2="effect1_dropShadow_220905_8293" result="shape"/>
</filter>
</defs>
</svg>
