<svg width="24" height="24" viewBox="0 0 24 24" fill="none" xmlns="http://www.w3.org/2000/svg">
<path d="M17.25 4.5H6.75V6H17.25V4.5Z" fill="#99AF61"/>
<path d="M10.875 1.875H8.625V3H10.875V1.875Z" fill="#99AF61"/>
<path d="M17.25 4.125H16.8375C16.7505 3.70177 16.5202 3.32148 16.1855 3.04824C15.8508 2.775 15.4321 2.62552 15 2.625H11.25V2.23125C11.4779 2.18499 11.6804 2.05571 11.8183 1.86853C11.9561 1.68134 12.0195 1.4496 11.9962 1.21828C11.9728 0.986968 11.8643 0.77259 11.6918 0.616759C11.5193 0.460928 11.295 0.374767 11.0625 0.375H8.4375C8.205 0.374767 7.9807 0.460928 7.8082 0.616759C7.63566 0.77259 7.52719 0.986968 7.5038 1.21828C7.48045 1.4496 7.54387 1.68134 7.68173 1.86853C7.81964 2.05571 8.02214 2.18499 8.25 2.23125V2.78203C7.97466 2.90278 7.73227 3.08772 7.54308 3.32137C7.35384 3.55501 7.22334 3.83058 7.1625 4.125H6.75C6.65053 4.125 6.55514 4.16451 6.48483 4.23483C6.41452 4.30516 6.375 4.40055 6.375 4.5V6C6.375 6.09947 6.41452 6.19486 6.48483 6.26517C6.55514 6.33549 6.65053 6.375 6.75 6.375H6.76594L7.42219 21.4725C7.44628 22.0522 7.69383 22.6001 8.11289 23.0013C8.532 23.4026 9.09009 23.6261 9.67031 23.625H14.3297C14.9099 23.6261 15.468 23.4026 15.8871 23.0013C16.3062 22.6001 16.5537 22.0522 16.5778 21.4725L17.2341 6.375H17.25C17.3495 6.375 17.4449 6.33549 17.5152 6.26517C17.5855 6.19486 17.625 6.09947 17.625 6V4.5C17.625 4.40055 17.5855 4.30516 17.5152 4.23483C17.4449 4.16451 17.3495 4.125 17.25 4.125ZM8.4375 1.125H11.0625C11.1122 1.125 11.1599 1.14475 11.1951 1.17992C11.2303 1.21508 11.25 1.26277 11.25 1.3125C11.25 1.36223 11.2303 1.40992 11.1951 1.44508C11.1599 1.48025 11.1122 1.5 11.0625 1.5H8.4375C8.38777 1.5 8.34009 1.48025 8.30494 1.44508C8.26973 1.40992 8.25 1.36223 8.25 1.3125C8.25 1.26277 8.26973 1.21508 8.30494 1.17992C8.34009 1.14475 8.38777 1.125 8.4375 1.125ZM10.5 2.25V2.625H9V2.25H10.5ZM9 3.375H15C15.2326 3.37528 15.4594 3.44751 15.6493 3.58179C15.8392 3.71606 15.983 3.90581 16.0608 4.125H7.93922C8.01703 3.90581 8.16075 3.71606 8.35069 3.58179C8.54058 3.44751 8.76741 3.37528 9 3.375ZM15.8283 21.4402C15.8122 21.8265 15.6472 22.1918 15.3678 22.4592C15.0885 22.7267 14.7165 22.8757 14.3297 22.875H9.67031C9.28355 22.8757 8.91155 22.7267 8.63222 22.4592C8.35284 22.1918 8.18784 21.8265 8.17172 21.4402L7.51688 6.375H16.4831L15.8283 21.4402ZM16.875 5.625H7.125V4.875H16.875V5.625Z" fill="#99AF61"/>
<path d="M10.5 12.375H13.5C13.5995 12.375 13.6949 12.3355 13.7652 12.2652C13.8355 12.1949 13.875 12.0995 13.875 12C13.875 11.9005 13.8355 11.8051 13.7652 11.7348C13.6949 11.6645 13.5995 11.625 13.5 11.625H10.5C10.4005 11.625 10.3051 11.6645 10.2348 11.7348C10.1645 11.8051 10.125 11.9005 10.125 12C10.125 12.0995 10.1645 12.1949 10.2348 12.2652C10.3051 12.3355 10.4005 12.375 10.5 12.375Z" fill="#99AF61"/>
<path d="M10.5 14.625H13.5C13.5995 14.625 13.6949 14.5855 13.7652 14.5152C13.8355 14.4449 13.875 14.3495 13.875 14.25C13.875 14.1505 13.8355 14.0551 13.7652 13.9848C13.6949 13.9145 13.5995 13.875 13.5 13.875H10.5C10.4005 13.875 10.3051 13.9145 10.2348 13.9848C10.1645 14.0551 10.125 14.1505 10.125 14.25C10.125 14.3495 10.1645 14.4449 10.2348 14.5152C10.3051 14.5855 10.4005 14.625 10.5 14.625Z" fill="#99AF61"/>
<path d="M11.25 12.75C11.1505 12.75 11.0551 12.7895 10.9848 12.8598C10.9145 12.9301 10.875 13.0255 10.875 13.125C10.875 13.2245 10.9145 13.3199 10.9848 13.3902C11.0551 13.4605 11.1505 13.5 11.25 13.5H12.75C12.8495 13.5 12.9449 13.4605 13.0152 13.3902C13.0855 13.3199 13.125 13.2245 13.125 13.125C13.125 13.0255 13.0855 12.9301 13.0152 12.8598C12.9449 12.7895 12.8495 12.75 12.75 12.75H11.25Z" fill="#99AF61"/>
<path d="M10.5 16.875H13.5C13.5995 16.875 13.6949 16.8355 13.7652 16.7652C13.8355 16.6949 13.875 16.5995 13.875 16.5C13.875 16.4005 13.8355 16.3051 13.7652 16.2348C13.6949 16.1645 13.5995 16.125 13.5 16.125H10.5C10.4005 16.125 10.3051 16.1645 10.2348 16.2348C10.1645 16.3051 10.125 16.4005 10.125 16.5C10.125 16.5995 10.1645 16.6949 10.2348 16.7652C10.3051 16.8355 10.4005 16.875 10.5 16.875Z" fill="#99AF61"/>
<path d="M11.25 15C11.1505 15 11.0551 15.0395 10.9848 15.1098C10.9145 15.1801 10.875 15.2755 10.875 15.375C10.875 15.4745 10.9145 15.5699 10.9848 15.6402C11.0551 15.7105 11.1505 15.75 11.25 15.75H12.75C12.8495 15.75 12.9449 15.7105 13.0152 15.6402C13.0855 15.5699 13.125 15.4745 13.125 15.375C13.125 15.2755 13.0855 15.1801 13.0152 15.1098C12.9449 15.0395 12.8495 15 12.75 15H11.25Z" fill="#99AF61"/>
</svg>
