<svg width="24" height="24" viewBox="0 0 24 24" fill="none" xmlns="http://www.w3.org/2000/svg">
<path d="M21.8057 5.16207C21.7941 5.00976 21.79 4.85745 21.7853 4.69522V4.6602C21.7444 3.24797 20.7605 2.0925 19.5199 1.96353C19.0857 1.58553 18.5737 1.30779 18.02 1.15004C17.4664 0.9923 16.8849 0.958427 16.3167 1.05083L3.96779 3.02913L3.79914 3.05597L2 3.34426V3.64246C2 5.57582 2.75864 6.9688 4.25316 7.78112C5.43955 8.42655 7.08113 8.72709 9.41832 8.72709H11.3803C11.4969 8.72702 11.6116 8.75631 11.7139 8.81225C11.8162 8.86819 11.9027 8.94898 11.9656 9.04718C12.0284 9.14538 12.0655 9.25782 12.0735 9.37413C12.0815 9.49045 12.06 9.60689 12.0111 9.71273L10.4542 13.0881C9.66974 13.2822 8.94256 13.6596 8.3323 14.1893C7.49138 14.91 6.84478 15.9108 6.49464 17.0313H4.8058V19.784C4.8058 21.4617 5.97293 22.8559 7.44994 22.9848L7.46045 23H15.7471L15.8516 22.8512C16.6172 21.7617 17.0216 20.4504 17.0216 19.058C17.0213 18.7592 17.0018 18.4608 16.9633 18.1646H20.8148V11.719C21.1042 11.6239 21.3651 11.4575 21.5735 11.2353C21.932 10.8524 22.1394 10.3525 22.157 9.82828V9.80727L21.8057 5.16207ZM2.70845 3.94008L3.80089 3.76501V4.90355H2.83917C2.76505 4.58728 2.72128 4.26466 2.70845 3.94008ZM5.50608 17.7315H6.43979C6.38535 17.9623 6.27 18.1742 6.10577 18.3452C5.94154 18.5162 5.73445 18.6401 5.50608 18.7038V17.7315ZM15.3801 22.2997H7.82343V22.2962H7.64836C6.46838 22.2793 5.50841 21.1536 5.50841 19.7869V19.3737C5.96218 19.2903 6.37241 19.0506 6.6679 18.6962C6.96339 18.3419 7.12549 17.8953 7.12606 17.4339V17.3756C7.42718 16.3251 8.01542 15.3874 8.79157 14.7233C9.16943 14.3974 9.59847 14.1362 10.0614 13.95C11.0846 13.5409 12.2284 13.5541 13.2419 13.9868L13.7291 14.1934V12.0925C14.3421 12.1781 14.9036 12.4821 15.3102 12.9488C15.7169 13.4154 15.9412 14.0133 15.942 14.6322V16.9233L15.963 16.9817C16.021 17.1404 16.0718 17.3015 16.1153 17.4649C16.1771 17.6952 16.225 17.9291 16.2589 18.1651C16.3016 18.4622 16.3226 18.762 16.3219 19.0621C16.3312 20.2102 16.0037 21.3358 15.3801 22.2997ZM20.1145 17.466H16.8343C16.7813 17.2416 16.7165 17.0201 16.64 16.8025V14.6334C16.6389 13.7682 16.2948 12.9387 15.683 12.3269C15.0713 11.715 14.2419 11.3707 13.3767 11.3695H13.0265V13.1628C12.5659 13.0217 12.0867 12.9501 11.6049 12.9504C11.4982 12.9504 11.3914 12.955 11.2852 12.962L12.649 10.0063C12.7471 9.79371 12.7902 9.55985 12.7742 9.32626C12.7582 9.09268 12.6837 8.86687 12.5574 8.66967C12.4312 8.47247 12.2574 8.31022 12.052 8.19787C11.8466 8.08552 11.6162 8.02669 11.382 8.02681H9.42007C5.87431 8.02681 3.85925 7.28276 3.08018 5.60383H4.50117V3.65588L16.4264 1.74353C17.1374 1.62834 17.8666 1.7534 18.4986 2.09892C17.5941 2.43856 16.8938 3.33842 16.7672 4.44778L16.7619 4.49213C16.7438 4.65028 16.7269 4.79967 16.7036 4.9479L15.9601 9.58027L15.956 9.62111C15.9082 10.7497 16.6919 11.7033 17.7038 11.7465L20.1175 11.7949L20.1145 17.466ZM21.0658 10.755C20.9914 10.8328 20.907 10.9003 20.8148 10.9557C20.6495 11.0572 20.4578 11.1076 20.2639 11.1005L20.1145 11.0975L17.7272 11.0497C17.1086 11.0211 16.6295 10.4078 16.6516 9.67305L17.3899 5.05644C17.4161 4.89246 17.4348 4.72848 17.4529 4.56975L17.4581 4.5254C17.5749 3.48373 18.3422 2.68657 19.2275 2.65214C19.2689 2.65214 19.311 2.65214 19.353 2.65214C19.7466 2.67323 20.1194 2.83521 20.4034 3.10849C20.8026 3.48023 21.0646 4.0422 21.0827 4.68004V4.71506C21.0873 4.87729 21.092 5.04477 21.1049 5.21342L21.455 9.81603C21.441 10.1643 21.3032 10.4962 21.0663 10.7521L21.0658 10.755Z" fill="#99AF61" stroke="#99AF61" stroke-width="0.5"/>
<path d="M12.4448 19.2373H9.06592V19.9376H12.4448V19.2373Z" fill="#99AF61" stroke="#99AF61" stroke-width="0.5"/>
<path d="M9.18907 20.1599L9.05713 20.8477L12.321 21.4738L12.453 20.7861L9.18907 20.1599Z" fill="#99AF61" stroke="#99AF61" stroke-width="0.5"/>
<path d="M9.53967 16.8799H8.60596V17.928H9.53967V16.8799Z" fill="#99AF61" stroke="#99AF61" stroke-width="0.5"/>
<path d="M13.8976 3.75391H12.7305V5.03542H13.8976V3.75391Z" fill="#99AF61" stroke="#99AF61" stroke-width="0.5"/>
</svg>
