<svg width="24" height="24" viewBox="0 0 24 24" fill="none" xmlns="http://www.w3.org/2000/svg">
<g clip-path="url(#clip0_220877_26512)">
<path d="M18.2998 19.2754C16.7998 19.8754 14.9998 20.2504 13.1248 20.2504C11.6248 20.2504 10.1998 20.0254 8.9248 19.6504" stroke="#99AF61" stroke-width="2" stroke-miterlimit="10" stroke-linecap="round" stroke-linejoin="round"/>
<path d="M16.425 17.55C16.875 18.3 17.55 18.975 18.375 19.35L18.75 19.5L19.5 21H21.75V18.75C22.725 16.8 23.25 14.625 23.25 12.375C23.25 9.225 20.7 6.75 17.625 6.75H11.475C9.9 5.325 7.875 4.5 5.7 4.5H5.25L7.05 7.5C6.075 8.1 5.25 9 4.875 10.2L4.5 11.25C4.05 12.525 2.775 13.2 1.5 12.75V15.75L6 17.25V21H8.25L9 18.75" stroke="#99AF61" stroke-width="2" stroke-miterlimit="10" stroke-linecap="round" stroke-linejoin="round"/>
<path d="M22.8751 13.65C22.0501 14.475 20.7751 14.475 19.9501 13.65C19.2751 12.975 19.2751 11.925 19.9501 11.25" stroke="#99AF61" stroke-width="2" stroke-miterlimit="10" stroke-linecap="round" stroke-linejoin="round"/>
<path d="M7.5 13.5C7.425 13.5 7.425 13.5 7.35 13.5C7.275 13.5 7.275 13.5 7.2 13.425C7.125 13.425 7.125 13.35 7.05 13.35C6.975 13.35 6.975 13.275 6.975 13.275C6.975 13.2 6.9 13.2 6.9 13.2C6.9 13.125 6.825 13.125 6.825 13.05C6.825 12.975 6.825 12.975 6.75 12.9C6.75 12.825 6.75 12.825 6.75 12.75C6.75 12.525 6.825 12.375 6.975 12.225L7.05 12.15C7.125 12.15 7.125 12.075 7.2 12.075C7.275 12.075 7.275 12.075 7.35 12C7.5 12 7.65 12 7.8 12.075C7.875 12.15 7.95 12.15 8.025 12.225C8.1 12.3 8.175 12.375 8.175 12.45C8.175 12.525 8.25 12.675 8.25 12.75C8.25 12.825 8.25 12.825 8.25 12.9C8.25 12.975 8.25 12.975 8.175 13.05C8.175 13.125 8.1 13.125 8.1 13.2L8.025 13.275C7.875 13.425 7.725 13.5 7.5 13.5Z" fill="#99AF61"/>
</g>
<defs>
<clipPath id="clip0_220877_26512">
<rect width="24" height="24" fill="white"/>
</clipPath>
</defs>
</svg>
