<svg width="24" height="25" viewBox="0 0 24 25" fill="none" xmlns="http://www.w3.org/2000/svg">
<g clip-path="url(#clip0_221021_2159)">
<path d="M23.3797 15.929C23.3528 15.8635 23.307 15.8075 23.2482 15.7682C23.1894 15.7288 23.1201 15.7079 23.0494 15.708H21.2054C21.1805 14.2162 20.5909 12.7894 19.5555 11.7151C18.52 10.6409 17.1159 9.99923 15.626 9.91946C15.5937 9.91506 15.5609 9.91506 15.5286 9.91946C14.4039 8.99343 13.0419 8.40159 11.5975 8.21126C10.1531 8.02092 8.68431 8.23973 7.35812 8.84279C6.03193 9.44585 4.90158 10.409 4.09562 11.6226C3.28967 12.8362 2.84046 14.2517 2.79907 15.708H0.950361C0.87991 15.708 0.811058 15.729 0.7525 15.7681C0.693942 15.8073 0.648305 15.863 0.621353 15.928C0.594401 15.9931 0.587343 16.0648 0.60107 16.1339C0.614797 16.203 0.648694 16.2664 0.698479 16.3163L3.28145 18.8993C3.70015 19.3203 4.19824 19.6541 4.74685 19.8813C5.29546 20.1085 5.8837 20.2246 6.47749 20.2228H17.5222C18.116 20.2246 18.7043 20.1085 19.2529 19.8813C19.8015 19.6541 20.2996 19.3203 20.7183 18.8993L23.3013 16.3163C23.3511 16.2667 23.3851 16.2034 23.3991 16.1345C23.413 16.0656 23.4063 15.9941 23.3797 15.929ZM20.4902 15.708H18.3682C18.3136 13.8673 17.6061 12.1061 16.3721 10.7393C17.5197 10.979 18.5519 11.601 19.2999 12.5036C20.048 13.4062 20.4676 14.5359 20.4902 15.708ZM10.5836 8.86678C12.4188 8.86938 14.1814 9.58388 15.5004 10.8599C16.8194 12.1359 17.5919 13.8739 17.6553 15.708H15.8209C15.8209 14.3187 15.269 12.9862 14.2866 12.0039C13.3042 11.0215 11.9718 10.4696 10.5824 10.4696C9.19313 10.4696 7.86071 11.0215 6.87832 12.0039C5.89593 12.9862 5.34402 14.3187 5.34402 15.708H3.51194C3.57533 13.8739 4.34783 12.1359 5.66683 10.8599C6.98582 9.58388 8.74843 8.86938 10.5836 8.86678ZM13.1642 15.708C13.1357 15.0421 12.851 14.413 12.3698 13.9519C11.8885 13.4908 11.2477 13.2334 10.5813 13.2334C9.91476 13.2334 9.27402 13.4908 8.79275 13.9519C8.31147 14.413 8.02685 15.0421 7.99828 15.708H6.05927C6.05927 14.5084 6.53582 13.3579 7.38408 12.5096C8.23234 11.6614 9.38282 11.1848 10.5824 11.1848C11.7821 11.1848 12.9325 11.6614 13.7808 12.5096C14.6291 13.3579 15.1056 14.5084 15.1056 15.708H13.1642ZM12.4514 15.708H8.71353C8.74292 15.2323 8.95262 14.7857 9.29988 14.4592C9.64714 14.1327 10.1058 13.951 10.5824 13.951C11.0591 13.951 11.5177 14.1327 11.865 14.4592C12.2123 14.7857 12.422 15.2323 12.4514 15.708ZM20.2145 18.3955C19.8618 18.7501 19.4422 19.0312 18.9801 19.2225C18.5179 19.4138 18.0224 19.5115 17.5222 19.51H6.47749C5.97732 19.5115 5.48181 19.4138 5.01967 19.2225C4.55753 19.0312 4.13794 18.7501 3.78521 18.3955L1.81056 16.4208H22.1892L20.2145 18.3955Z" fill="#99AF61"/>
<path d="M15.638 7.58844C15.5696 7.65462 15.5304 7.74524 15.5288 7.84039C15.5272 7.93553 15.5635 8.02739 15.6297 8.09577C15.6959 8.16415 15.7865 8.20344 15.8816 8.205C15.9768 8.20656 16.0687 8.17026 16.137 8.10409C16.1632 8.08033 18.6392 5.59953 16.0016 2.59359C15.9704 2.55833 15.9325 2.52956 15.8902 2.50893C15.8479 2.48829 15.8019 2.47619 15.7549 2.47332C15.66 2.46753 15.5667 2.49968 15.4954 2.5627C15.4242 2.62572 15.381 2.71445 15.3752 2.80937C15.3694 2.90429 15.4015 2.99763 15.4646 3.06884C17.6483 5.54488 15.7236 7.5029 15.638 7.58844Z" fill="#99AF61"/>
<path d="M14.02 5.14096C14.0217 5.46818 13.9309 5.78922 13.7581 6.0671C13.5853 6.34499 13.3376 6.56841 13.0434 6.71165C12.959 6.75136 12.8936 6.82254 12.8611 6.90993C12.8286 6.99732 12.8316 7.09395 12.8696 7.17912C12.9075 7.2643 12.9773 7.33122 13.0639 7.36554C13.1506 7.39987 13.2473 7.39886 13.3333 7.36274C13.7555 7.16238 14.1117 6.84539 14.3597 6.44918C14.6077 6.05298 14.7372 5.5941 14.7329 5.1267C14.7186 4.2475 14.3146 3.76274 13.9249 3.29225C13.4853 2.76472 13.0695 2.26571 13.0695 1.09423C13.0695 0.999696 13.0319 0.909035 12.9651 0.842191C12.8982 0.775346 12.8076 0.737793 12.7131 0.737793C12.6185 0.737793 12.5279 0.775346 12.461 0.842191C12.3942 0.909035 12.3566 0.999696 12.3566 1.09423C12.3421 1.58214 12.4247 2.06808 12.5997 2.52376C12.7747 2.97944 13.0386 3.39576 13.376 3.74849C13.7301 4.17621 14.02 4.51126 14.02 5.14096Z" fill="#99AF61"/>
</g>
<defs>
<clipPath id="clip0_221021_2159">
<rect width="24" height="24" fill="white" transform="translate(0 0.5)"/>
</clipPath>
</defs>
</svg>
