<svg width="30" height="24" viewBox="0 0 30 24" fill="none" xmlns="http://www.w3.org/2000/svg">
<g clip-path="url(#clip0_220877_26545)">
<path d="M1 13.5C2.33333 14.1667 3.66667 14.1667 5 13.5C6.33333 12.8333 7.66667 12.8333 9 13.5C10.3333 14.1667 11.6667 14.1667 13 13.5C14.3333 12.8333 15.6667 12.8333 17 13.5C18.3333 14.1667 19.6667 14.1667 21 13.5C22.3333 12.8333 23.6667 12.8333 25 13.5C26.3333 14.1667 27.6667 14.1667 29 13.5" stroke="#99AF61" stroke-width="1.5" stroke-linecap="round" stroke-linejoin="round"/>
<path d="M27.9987 17H2.03655C1.54496 21.68 6.13314 22.95 8.48868 23H20.6248C26.6468 23 28.0499 19 27.9987 17Z" stroke="#99AF61" stroke-width="1.5"/>
<path d="M26 9.5H4C2.067 9.5 0.5 11.067 0.5 13C0.5 14.933 2.067 16.5 4 16.5H26C27.933 16.5 29.5 14.933 29.5 13C29.5 11.067 27.933 9.5 26 9.5Z" stroke="#99AF61" stroke-width="1.5"/>
<path d="M11.6596 1C3.69728 1.17297 1.90478 6.40541 2.00382 9H28V8.13514C25.742 8.39459 25.2766 7.16216 25.3261 6.51351C21.0479 7.03243 20.6715 4.78378 21.0182 3.59459C18.166 3.85405 17.453 1.97297 17.453 1H11.6596Z" stroke="#99AF61" stroke-width="1.5"/>
</g>
<defs>
<clipPath id="clip0_220877_26545">
<rect width="30" height="24" fill="white"/>
</clipPath>
</defs>
</svg>
