<svg width="24" height="24" viewBox="0 0 24 24" fill="none" xmlns="http://www.w3.org/2000/svg">
<path d="M16.3424 10.6725L13.9349 4.32H14.1824C14.2818 4.32 14.3772 4.28047 14.4476 4.21016C14.5179 4.13985 14.5574 4.04445 14.5574 3.945V2.39625C14.5564 2.05875 14.4216 1.73541 14.1826 1.49711C13.9436 1.25881 13.6199 1.125 13.2824 1.125H10.7174C10.3799 1.125 10.0562 1.25881 9.81714 1.49711C9.57815 1.73541 9.44337 2.05875 9.4424 2.39625V3.945C9.4424 4.04445 9.48189 4.13985 9.55224 4.21016C9.62255 4.28047 9.71795 4.32 9.8174 4.32H10.0461L7.6499 10.695C7.2263 11.815 7.03119 13.0084 7.07615 14.205L7.3199 21.105C7.34022 21.5822 7.54449 22.033 7.88979 22.3629C8.23512 22.6929 8.69476 22.8764 9.1724 22.875H14.8274C15.3078 22.8772 15.7701 22.692 16.116 22.3586C16.462 22.0253 16.6643 21.5701 16.6799 21.09L16.9236 14.2012C16.9701 12.9978 16.7723 11.7975 16.3424 10.6725ZM10.1924 2.39625C10.1934 2.25766 10.2491 2.12509 10.3475 2.02744C10.4458 1.92979 10.5788 1.875 10.7174 1.875H13.2824C13.421 1.875 13.5539 1.92979 13.6523 2.02744C13.7507 2.12509 13.8064 2.25766 13.8074 2.39625V3.57H10.1924V2.39625ZM15.9299 21.0637C15.9201 21.3493 15.7996 21.6198 15.5937 21.8179C15.3879 22.016 15.1131 22.1261 14.8274 22.125H9.1724C8.88672 22.1261 8.61185 22.016 8.40601 21.8179C8.20021 21.6198 8.07965 21.3493 8.0699 21.0637L7.8224 14.1637C7.78284 13.0668 7.96261 11.9729 8.35115 10.9462L10.8486 4.32H13.1249L15.6336 10.9387C16.0262 11.971 16.2086 13.0713 16.1699 14.175L15.9299 21.0637Z" fill="#99AF61"/>
<path d="M12.0001 12.7799C11.5725 12.7765 11.1491 12.8646 10.7583 13.0383C10.3676 13.2119 10.0184 13.4671 9.73432 13.7867C9.45026 14.1063 9.23774 14.4829 9.11111 14.8914C8.98451 15.2998 8.94663 15.7306 9.00011 16.1549L9.52136 20.4636C9.53242 20.5551 9.57674 20.6393 9.64589 20.7001C9.71508 20.761 9.80422 20.7943 9.89636 20.7936H14.0964C14.1885 20.7943 14.2776 20.761 14.3468 20.7001C14.416 20.6393 14.4603 20.5551 14.4714 20.4636L15.0001 16.1549C15.0536 15.7306 15.0157 15.2998 14.8891 14.8914C14.7625 14.4829 14.55 14.1063 14.2659 13.7867C13.9818 13.4671 13.6326 13.2119 13.2419 13.0383C12.8511 12.8646 12.4277 12.7765 12.0001 12.7799ZM14.2501 16.0611L13.7626 20.0436H10.2376L9.75011 16.0611C9.75011 15.4644 9.98714 14.8921 10.4091 14.4701C10.8311 14.0482 11.4034 13.8111 12.0001 13.8111C12.5968 13.8111 13.1691 14.0482 13.5911 14.4701C14.013 14.8921 14.2501 15.4644 14.2501 16.0611Z" fill="#99AF61"/>
</svg>
