<svg width="24" height="24" viewBox="0 0 24 24" fill="none" xmlns="http://www.w3.org/2000/svg">
<path d="M12 9.92432C6.54639 9.92432 0.75 11.1698 0.75 13.478C0.75 14.539 1.97633 15.3748 3.82924 15.969L5.03027 18.0236C6.35706 20.3015 8.82019 21.7165 11.458 21.7165H12.542C15.1798 21.7165 17.6429 20.3015 18.9694 18.0242L20.1708 15.969C22.0237 15.3748 23.25 14.539 23.25 13.478C23.25 11.1698 17.4536 9.92432 12 9.92432ZM12 10.6743C18.1879 10.6743 22.5 12.152 22.5 13.478C22.5 13.6469 22.4293 13.8182 22.2945 13.9886C20.5668 12.75 16.5234 11.9319 12 11.9319C7.47661 11.9319 3.4332 12.75 1.70551 13.9886C1.5707 13.8182 1.5 13.6469 1.5 13.478C1.5 12.152 5.81213 10.6743 12 10.6743ZM19.839 15.2961C19.8252 15.2991 19.8125 15.3036 19.7991 15.3081C17.938 15.8802 15.2247 16.2819 12 16.2819C8.77604 16.2819 6.06329 15.8804 4.20227 15.3086C4.18831 15.3038 4.17522 15.2991 4.16082 15.296C3.37688 15.0525 2.74672 14.7787 2.2971 14.4919C3.9584 13.4137 7.80844 12.6819 12 12.6819C16.1916 12.6819 20.0416 13.4137 21.7029 14.4919C21.2533 14.7787 20.623 15.0525 19.839 15.2961ZM18.3215 17.6461C17.1288 19.6943 14.9139 20.9665 12.542 20.9665H11.458C9.08606 20.9665 6.87122 19.6943 5.6781 17.6455L4.86919 16.2617C6.9231 16.7688 9.4969 17.0319 12 17.0319C14.5031 17.0319 17.0769 16.7688 19.1308 16.2617L18.3215 17.6461Z" fill="#99AF61"/>
<path d="M7.47144 13.103C6.80969 13.103 6.271 13.6415 6.271 14.3033V14.6492C6.271 14.8563 6.43872 15.0242 6.646 15.0242C6.85327 15.0242 7.021 14.8563 7.021 14.6492V14.3033C7.021 14.055 7.22314 13.853 7.47144 13.853C7.71973 13.853 7.92151 14.055 7.92151 14.3033V14.4364C7.92151 14.6435 8.08923 14.8114 8.29651 14.8114C8.50378 14.8114 8.67151 14.6435 8.67151 14.4364V14.3033C8.67151 13.6415 8.13318 13.103 7.47144 13.103Z" fill="#99AF61"/>
<path d="M11.8212 13.772C11.1594 13.772 10.6211 14.3105 10.6211 14.9722V15.3181C10.6211 15.5252 10.7888 15.6931 10.9961 15.6931C11.2034 15.6931 11.3711 15.5252 11.3711 15.3181V14.9722C11.3711 14.7239 11.5729 14.522 11.8212 14.522C12.0695 14.522 12.2712 14.7239 12.272 14.9968L12.2947 15.3427C12.3079 15.541 12.4727 15.6931 12.6686 15.6931C12.677 15.6931 12.6851 15.6929 12.6935 15.6924C12.9 15.6788 13.0568 15.5003 13.0432 15.2936L13.0212 14.9722C13.0212 14.3105 12.4829 13.772 11.8212 13.772Z" fill="#99AF61"/>
<path d="M17.3541 14.2739C16.5517 14.2739 15.7933 14.5123 15.2187 14.9448L15.1209 15.0182C14.9554 15.1428 14.9221 15.3777 15.0462 15.5434C15.1198 15.6415 15.2326 15.6932 15.3465 15.6932C15.4249 15.6932 15.504 15.6686 15.5714 15.6181L15.6695 15.5443C16.1086 15.2136 16.7227 15.0239 17.3541 15.0239C17.5614 15.0239 17.7291 14.856 17.7291 14.6489C17.7291 14.4418 17.5614 14.2739 17.3541 14.2739Z" fill="#99AF61"/>
<path d="M7.76572 9.20115C8.08286 9.20115 8.41172 9.16307 8.7446 9.07994C9.85599 8.8026 10.7596 8.13695 11.2132 7.28338L17.459 6.04881C18.2811 5.88695 18.9978 5.43504 19.3753 4.8405C19.6321 4.43657 19.7134 4.00426 19.6104 3.59044C19.5072 3.1768 19.2325 2.8333 18.8161 2.59727C18.2031 2.24937 17.359 2.18675 16.5562 2.43046L10.4626 4.27431C9.66114 3.73385 8.55102 3.56988 7.43906 3.8477C5.51243 4.32835 4.41709 6.06877 4.72471 7.30382C4.97996 8.32536 6.24521 9.20115 7.76572 9.20115ZM7.6207 4.57536C8.57248 4.33806 9.54954 4.49242 10.1688 4.97966C10.1761 4.98543 10.1861 4.986 10.1938 4.99117C10.2246 5.01195 10.2576 5.02592 10.2932 5.03686C10.3088 5.04155 10.3225 5.04821 10.3386 5.05089C10.3784 5.05773 10.4191 5.05505 10.4607 5.04832C10.4724 5.04652 10.4843 5.0505 10.4958 5.04759C10.4983 5.04697 10.5001 5.04507 10.5026 5.04439C10.5048 5.04375 10.5071 5.04443 10.5094 5.04375L16.7738 3.14824C17.3744 2.96605 18.0145 3.00487 18.4463 3.2495C18.6089 3.34178 18.8165 3.50731 18.8824 3.77189C18.9483 4.03667 18.8429 4.28038 18.7425 4.43822C18.4767 4.85661 17.9292 5.19169 17.3136 5.31309L10.8928 6.5822C10.8896 6.58284 10.8873 6.58508 10.8842 6.58579C10.881 6.5865 10.878 6.58545 10.8749 6.58623C10.8614 6.58961 10.8516 6.59994 10.8387 6.60472C10.8028 6.61802 10.7688 6.63287 10.7394 6.65549C10.7247 6.66682 10.7139 6.68082 10.701 6.69421C10.6767 6.71937 10.6559 6.7455 10.6394 6.77624C10.6349 6.78467 10.6264 6.78998 10.6225 6.79881C10.3047 7.51933 9.51548 8.11461 8.56296 8.35228C7.10142 8.71812 5.66623 7.97746 5.45273 7.12236C5.23923 6.26689 6.15879 4.94011 7.6207 4.57536Z" fill="#99AF61"/>
</svg>
