<svg width="150" height="18" viewBox="0 0 150 18" fill="none" xmlns="http://www.w3.org/2000/svg">
<path d="M26.2644 16.6096L32.973 1.5852H36.4132L43.1433 16.6096H39.488L33.9835 3.3452H35.3597L29.8337 16.6096H26.2644ZM29.6187 13.3901L30.5433 10.7501H38.2839L39.23 13.3901H29.6187ZM46.4216 16.6096V4.41837H41.6052V1.5852H54.7213V4.41837H49.9049V16.6096H46.4216ZM55.9504 16.6096V1.5852H58.8317L65.2393 12.1881H63.7126L70.0127 1.5852H72.8724L72.9154 16.6096H69.6472L69.6256 6.58617H70.2277L65.1963 15.0213H63.6266L58.4877 6.58617H59.2187V16.6096H55.9504ZM73.8631 16.6096L80.5716 1.5852H84.0119L90.7419 16.6096H87.0866L81.5822 3.3452H82.9583L77.4324 16.6096H73.8631ZM77.2173 13.3901L78.1419 10.7501H85.8825L86.8286 13.3901H77.2173ZM91.6583 16.6096V1.5852H98.1733C99.5209 1.5852 100.682 1.80699 101.657 2.25056C102.632 2.67983 103.384 3.30227 103.914 4.11788C104.445 4.93349 104.71 5.90649 104.71 7.03691C104.71 8.153 104.445 9.11886 103.914 9.93447C103.384 10.7358 102.632 11.3511 101.657 11.7803C100.682 12.2096 99.5209 12.4242 98.1733 12.4242H93.5935L95.1416 10.9003V16.6096H91.6583ZM101.227 16.6096L97.4638 11.1579H101.184L104.989 16.6096H101.227ZM95.1416 11.2867L93.5935 9.65544H97.9798C99.0549 9.65544 99.8579 9.42649 100.388 8.96861C100.919 8.49642 101.184 7.85252 101.184 7.03691C101.184 6.20697 100.919 5.56307 100.388 5.1052C99.8579 4.64731 99.0549 4.41837 97.9798 4.41837H93.5935L95.1416 2.76569V11.2867ZM112.269 16.6096V1.5852H119.623C121.515 1.5852 122.934 1.94292 123.88 2.65837C124.841 3.37381 125.321 4.31821 125.321 5.49154C125.321 6.27854 125.127 6.96537 124.74 7.55203C124.353 8.1244 123.823 8.56795 123.149 8.88276C122.475 9.19757 121.701 9.35495 120.827 9.35495L121.235 8.47496C122.181 8.47496 123.02 8.63234 123.751 8.94715C124.482 9.24764 125.048 9.69837 125.45 10.2993C125.865 10.9003 126.073 11.6372 126.073 12.5101C126.073 13.7979 125.564 14.8067 124.547 15.5364C123.529 16.2519 122.031 16.6096 120.053 16.6096H112.269ZM115.731 13.9911H119.795C120.698 13.9911 121.379 13.8479 121.837 13.5618C122.31 13.2613 122.547 12.7891 122.547 12.1452C122.547 11.5156 122.31 11.0506 121.837 10.7501C121.379 10.4353 120.698 10.2779 119.795 10.2779H115.473V7.7452H119.193C120.038 7.7452 120.683 7.6021 121.128 7.31593C121.586 7.01544 121.816 6.56471 121.816 5.96373C121.816 5.37708 121.586 4.94063 121.128 4.65447C120.683 4.35398 120.038 4.20373 119.193 4.20373H115.731V13.9911ZM128.065 16.6096V1.5852H131.549V16.6096H128.065ZM141.786 16.8671C140.596 16.8671 139.493 16.674 138.475 16.2876C137.472 15.9013 136.597 15.3576 135.852 14.6564C135.121 13.9553 134.547 13.1325 134.132 12.1881C133.73 11.2437 133.53 10.2135 133.53 9.09739C133.53 7.9813 133.73 6.95105 134.132 6.00666C134.547 5.06227 135.128 4.23951 135.873 3.53837C136.619 2.83723 137.493 2.29349 138.497 1.90715C139.5 1.52081 140.589 1.32764 141.765 1.32764C142.954 1.32764 144.044 1.52081 145.033 1.90715C146.036 2.29349 146.904 2.83723 147.635 3.53837C148.38 4.23951 148.961 5.06227 149.376 6.00666C149.792 6.93673 150 7.96697 150 9.09739C150 10.2135 149.792 11.2509 149.376 12.2096C148.961 13.154 148.38 13.9767 147.635 14.6779C146.904 15.3647 146.036 15.9013 145.033 16.2876C144.044 16.674 142.962 16.8671 141.786 16.8671ZM141.765 13.9052C142.438 13.9052 143.055 13.7907 143.614 13.5618C144.187 13.3328 144.689 13.0037 145.119 12.5745C145.549 12.1452 145.879 11.6372 146.108 11.0506C146.352 10.4639 146.474 9.81283 146.474 9.09739C146.474 8.38196 146.352 7.73088 146.108 7.14422C145.879 6.55757 145.549 6.04959 145.119 5.62032C144.703 5.19105 144.209 4.86194 143.636 4.633C143.062 4.40406 142.438 4.28959 141.765 4.28959C141.091 4.28959 140.467 4.40406 139.894 4.633C139.335 4.86194 138.841 5.19105 138.411 5.62032C137.981 6.04959 137.644 6.55757 137.4 7.14422C137.171 7.73088 137.056 8.38196 137.056 9.09739C137.056 9.79855 137.171 10.4496 137.4 11.0506C137.644 11.6372 137.973 12.1452 138.389 12.5745C138.819 13.0037 139.321 13.3328 139.894 13.5618C140.467 13.7907 141.091 13.9052 141.765 13.9052Z" fill="#32267D"/>
<path d="M20.1529 0.957031H26.0669L15.0176 14.871C13.9278 16.2434 12.2711 17.0433 10.5186 17.0433H0.575627C0.0245451 17.0433 -0.210395 16.3426 0.229295 16.0104L20.1529 0.957031Z" fill="#4A4387"/>
</svg>
