<svg width="116" height="40" viewBox="0 0 116 40" fill="none" xmlns="http://www.w3.org/2000/svg">
<path d="M111.345 25.3569H115.821L107.229 36.1494C106.55 37.0026 105.518 37.4998 104.426 37.4998H96.302C95.9586 37.4998 95.8122 37.0641 96.0864 36.8576L111.345 25.3569Z" fill="#4A4387"/>
<path d="M0.180664 20.3573L6.32437 6.6073H9.47499L15.6384 20.3573H12.2908L7.24986 8.21801H8.51011L3.44943 20.3573H0.180664ZM3.25252 17.4109L4.09924 14.9948H11.1881L12.0546 17.4109H3.25252ZM18.6407 20.3573V9.20015H14.2298V6.6073H26.2416V9.20015H21.8307V20.3573H18.6407ZM27.3672 20.3573V6.6073H30.0058L35.8739 16.3109H34.4758L40.2454 6.6073H42.8644L42.9038 20.3573H39.9107L39.891 11.1841H40.4423L35.8346 18.9037H34.397L29.6908 11.1841H30.3603V20.3573H27.3672ZM43.7716 20.3573L49.9153 6.6073H53.0659L59.2293 20.3573H55.8818L50.8408 8.21801H52.101L47.0404 20.3573H43.7716ZM46.8435 17.4109L47.6902 14.9948H54.7791L55.6455 17.4109H46.8435ZM60.0685 20.3573V6.6073H66.035C67.2691 6.6073 68.3325 6.81026 69.225 7.21622C70.1179 7.60908 70.8071 8.17872 71.2926 8.92515C71.7784 9.67158 72.0212 10.562 72.0212 11.5966C72.0212 12.618 71.7784 13.5019 71.2926 14.2484C70.8071 14.9817 70.1179 15.5448 69.225 15.9377C68.3325 16.3305 67.2691 16.5269 66.035 16.5269H61.8407L63.2585 15.1323V20.3573H60.0685ZM68.8312 20.3573L65.3852 15.368H68.7918L72.2772 20.3573H68.8312ZM63.2585 15.4859L61.8407 13.993H65.8578C66.8424 13.993 67.5777 13.7835 68.0632 13.3644C68.5491 12.9323 68.7918 12.343 68.7918 11.5966C68.7918 10.837 68.5491 10.2478 68.0632 9.82873C67.5777 9.40969 66.8424 9.20015 65.8578 9.20015H61.8407L63.2585 7.68765V15.4859ZM78.9439 20.3573V6.6073H85.6784C87.4112 6.6073 88.7109 6.93469 89.5773 7.58944C90.4569 8.24419 90.8966 9.10847 90.8966 10.1823C90.8966 10.9025 90.7194 11.5311 90.3649 12.068C90.0105 12.5918 89.5246 12.9978 88.9078 13.2859C88.2909 13.574 87.582 13.718 86.7811 13.718L87.1552 12.9127C88.0217 12.9127 88.7896 13.0567 89.4591 13.3448C90.1286 13.6198 90.6471 14.0323 91.0147 14.5823C91.3953 15.1323 91.5858 15.8067 91.5858 16.6055C91.5858 17.7841 91.1197 18.7073 90.1877 19.3752C89.2558 20.0299 87.8838 20.3573 86.0722 20.3573H78.9439ZM82.1143 17.9609H85.8359C86.663 17.9609 87.2866 17.8299 87.7066 17.568C88.1398 17.293 88.3564 16.8609 88.3564 16.2716C88.3564 15.6954 88.1398 15.2698 87.7066 14.9948C87.2866 14.7067 86.663 14.5627 85.8359 14.5627H81.878V12.2448H85.2846C86.059 12.2448 86.6497 12.1138 87.0568 11.8519C87.4767 11.5769 87.6869 11.1644 87.6869 10.6144C87.6869 10.0775 87.4767 9.67812 87.0568 9.41622C86.6497 9.14122 86.059 9.00372 85.2846 9.00372H82.1143V17.9609ZM93.4103 20.3573V6.6073H96.6003V20.3573H93.4103ZM105.976 20.593C104.886 20.593 103.875 20.4162 102.943 20.0627C102.024 19.7091 101.223 19.2115 100.541 18.5698C99.8716 17.9281 99.3463 17.1752 98.9658 16.3109C98.5981 15.4466 98.4144 14.5037 98.4144 13.4823C98.4144 12.4609 98.5981 11.518 98.9658 10.6537C99.3463 9.78944 99.878 9.03647 100.561 8.3948C101.243 7.75312 102.044 7.25551 102.963 6.90194C103.882 6.54837 104.88 6.37158 105.956 6.37158C107.046 6.37158 108.043 6.54837 108.949 6.90194C109.868 7.25551 110.662 7.75312 111.332 8.3948C112.014 9.03647 112.546 9.78944 112.927 10.6537C113.308 11.5049 113.498 12.4478 113.498 13.4823C113.498 14.5037 113.308 15.4531 112.927 16.3305C112.546 17.1948 112.014 17.9478 111.332 18.5894C110.662 19.218 109.868 19.7091 108.949 20.0627C108.043 20.4162 107.052 20.593 105.976 20.593ZM105.956 17.8823C106.573 17.8823 107.138 17.7775 107.65 17.568C108.175 17.3585 108.634 17.0573 109.028 16.6644C109.422 16.2716 109.724 15.8067 109.934 15.2698C110.157 14.7329 110.269 14.137 110.269 13.4823C110.269 12.8275 110.157 12.2317 109.934 11.6948C109.724 11.1579 109.422 10.693 109.028 10.3002C108.647 9.9073 108.194 9.60612 107.669 9.39658C107.144 9.18705 106.573 9.0823 105.956 9.0823C105.339 9.0823 104.768 9.18705 104.243 9.39658C103.731 9.60612 103.278 9.9073 102.884 10.3002C102.491 10.693 102.182 11.1579 101.959 11.6948C101.749 12.2317 101.644 12.8275 101.644 13.4823C101.644 14.124 101.749 14.7198 101.959 15.2698C102.182 15.8067 102.484 16.2716 102.865 16.6644C103.258 17.0573 103.718 17.3585 104.243 17.568C104.768 17.7775 105.339 17.8823 105.956 17.8823Z" fill="#4A4387"/>
<path d="M2.55993 36.4286V30.2464C2.55993 29.6893 2.72104 29.2464 3.04326 28.9179C3.37264 28.5822 3.83808 28.4143 4.43956 28.4143C4.66153 28.4143 4.87277 28.4429 5.07326 28.5C5.28092 28.55 5.45635 28.6322 5.59956 28.7464L5.28808 29.5286C5.18067 29.4429 5.05894 29.3786 4.92289 29.3357C4.78684 29.2857 4.64363 29.2607 4.49326 29.2607C4.19252 29.2607 3.96339 29.3464 3.80585 29.5179C3.64832 29.6822 3.56956 29.9286 3.56956 30.2572V31.0179L3.59104 31.4893V36.4286H2.55993ZM1.59326 31.5964V30.75H5.22363V31.5964H1.59326ZM8.33551 36.4929C7.76267 36.4929 7.25428 36.3679 6.81033 36.1179C6.36637 35.8679 6.01551 35.525 5.75773 35.0893C5.49996 34.6464 5.37107 34.1464 5.37107 33.5893C5.37107 33.025 5.49996 32.525 5.75773 32.0893C6.01551 31.6536 6.36637 31.3143 6.81033 31.0714C7.25428 30.8214 7.76267 30.6964 8.33551 30.6964C8.90119 30.6964 9.40601 30.8214 9.84996 31.0714C10.3011 31.3143 10.6519 31.6536 10.9025 32.0893C11.1603 32.5179 11.2892 33.0179 11.2892 33.5893C11.2892 34.1536 11.1603 34.6536 10.9025 35.0893C10.6519 35.525 10.3011 35.8679 9.84996 36.1179C9.40601 36.3679 8.90119 36.4929 8.33551 36.4929ZM8.33551 35.5929C8.7007 35.5929 9.0265 35.5107 9.31292 35.3464C9.6065 35.1822 9.83563 34.95 10.0003 34.65C10.165 34.3429 10.2474 33.9893 10.2474 33.5893C10.2474 33.1822 10.165 32.8322 10.0003 32.5393C9.83563 32.2393 9.6065 32.0072 9.31292 31.8429C9.0265 31.6786 8.7007 31.5964 8.33551 31.5964C7.97033 31.5964 7.64452 31.6786 7.3581 31.8429C7.07168 32.0072 6.84255 32.2393 6.6707 32.5393C6.49884 32.8322 6.41292 33.1822 6.41292 33.5893C6.41292 33.9893 6.49884 34.3429 6.6707 34.65C6.84255 34.95 7.07168 35.1822 7.3581 35.3464C7.64452 35.5107 7.97033 35.5929 8.33551 35.5929ZM14.9386 36.4929C14.3657 36.4929 13.8573 36.3679 13.4134 36.1179C12.9694 35.8679 12.6186 35.525 12.3608 35.0893C12.103 34.6464 11.9741 34.1464 11.9741 33.5893C11.9741 33.025 12.103 32.525 12.3608 32.0893C12.6186 31.6536 12.9694 31.3143 13.4134 31.0714C13.8573 30.8214 14.3657 30.6964 14.9386 30.6964C15.5042 30.6964 16.0091 30.8214 16.453 31.0714C16.9041 31.3143 17.255 31.6536 17.5056 32.0893C17.7634 32.5179 17.8923 33.0179 17.8923 33.5893C17.8923 34.1536 17.7634 34.6536 17.5056 35.0893C17.255 35.525 16.9041 35.8679 16.453 36.1179C16.0091 36.3679 15.5042 36.4929 14.9386 36.4929ZM14.9386 35.5929C15.3037 35.5929 15.6295 35.5107 15.916 35.3464C16.2095 35.1822 16.4387 34.95 16.6034 34.65C16.7681 34.3429 16.8504 33.9893 16.8504 33.5893C16.8504 33.1822 16.7681 32.8322 16.6034 32.5393C16.4387 32.2393 16.2095 32.0072 15.916 31.8429C15.6295 31.6786 15.3037 31.5964 14.9386 31.5964C14.5734 31.5964 14.2476 31.6786 13.9612 31.8429C13.6747 32.0072 13.4456 32.2393 13.2737 32.5393C13.1019 32.8322 13.016 33.1822 13.016 33.5893C13.016 33.9893 13.1019 34.3429 13.2737 34.65C13.4456 34.95 13.6747 35.1822 13.9612 35.3464C14.2476 35.5107 14.5734 35.5929 14.9386 35.5929ZM21.4556 36.4929C20.9043 36.4929 20.4102 36.3714 19.9734 36.1286C19.5438 35.8857 19.2037 35.5464 18.9531 35.1107C18.7024 34.675 18.5771 34.1679 18.5771 33.5893C18.5771 33.0107 18.7024 32.5072 18.9531 32.0786C19.2037 31.6429 19.5438 31.3036 19.9734 31.0607C20.4102 30.8179 20.9043 30.6964 21.4556 30.6964C21.9354 30.6964 22.3686 30.8036 22.7553 31.0179C23.1419 31.2322 23.4498 31.5536 23.679 31.9822C23.9153 32.4107 24.0334 32.9464 24.0334 33.5893C24.0334 34.2322 23.9189 34.7679 23.6897 35.1964C23.4677 35.625 23.1634 35.95 22.7768 36.1714C22.3901 36.3857 21.9497 36.4929 21.4556 36.4929ZM21.5416 35.5929C21.8996 35.5929 22.2218 35.5107 22.5082 35.3464C22.8018 35.1822 23.031 34.95 23.1956 34.65C23.3675 34.3429 23.4534 33.9893 23.4534 33.5893C23.4534 33.1822 23.3675 32.8322 23.1956 32.5393C23.031 32.2393 22.8018 32.0072 22.5082 31.8429C22.2218 31.6786 21.8996 31.5964 21.5416 31.5964C21.1764 31.5964 20.8506 31.6786 20.5642 31.8429C20.2777 32.0072 20.0486 32.2393 19.8768 32.5393C19.7049 32.8322 19.619 33.1822 19.619 33.5893C19.619 33.9893 19.7049 34.3429 19.8768 34.65C20.0486 34.95 20.2777 35.1822 20.5642 35.3464C20.8506 35.5107 21.1764 35.5929 21.5416 35.5929ZM23.4856 36.4286V34.8964L23.5501 33.5786L23.4427 32.2607V28.4786H24.4738V36.4286H23.4856ZM28.8796 36.4286V30.75H29.9107V36.4286H28.8796ZM29.3952 29.6572C29.1947 29.6572 29.0264 29.5929 28.8904 29.4643C28.7615 29.3357 28.697 29.1786 28.697 28.9929C28.697 28.8 28.7615 28.6393 28.8904 28.5107C29.0264 28.3822 29.1947 28.3179 29.3952 28.3179C29.5957 28.3179 29.7604 28.3822 29.8892 28.5107C30.0253 28.6322 30.0933 28.7857 30.0933 28.9714C30.0933 29.1643 30.0289 29.3286 29.9 29.4643C29.7711 29.5929 29.6028 29.6572 29.3952 29.6572ZM34.7043 30.6964C35.1697 30.6964 35.5779 30.7857 35.9289 30.9643C36.2869 31.1429 36.5662 31.4143 36.7667 31.7786C36.9672 32.1429 37.0674 32.6036 37.0674 33.1607V36.4286H36.0363V33.2786C36.0363 32.7286 35.9003 32.3143 35.628 32.0357C35.363 31.7572 34.9871 31.6179 34.5002 31.6179C34.135 31.6179 33.8164 31.6893 33.5443 31.8322C33.2722 31.975 33.0609 32.1857 32.9106 32.4643C32.7674 32.7429 32.6958 33.0893 32.6958 33.5036V36.4286H31.6647V30.75H32.6528V32.2822L32.4917 31.875C32.6779 31.5036 32.9643 31.2143 33.3509 31.0072C33.7376 30.8 34.1887 30.6964 34.7043 30.6964ZM41.2524 38.5714C40.7297 38.5714 40.2213 38.4964 39.7272 38.3464C39.2403 38.2036 38.8429 37.9964 38.535 37.725L39.029 36.9322C39.294 37.1607 39.6198 37.3393 40.0064 37.4679C40.3931 37.6036 40.7977 37.6714 41.2202 37.6714C41.8932 37.6714 42.3873 37.5143 42.7024 37.2C43.0174 36.8857 43.175 36.4072 43.175 35.7643V34.5643L43.2824 33.4393L43.2287 32.3036V30.75H44.2061V35.6572C44.2061 36.6572 43.9555 37.3929 43.4542 37.8643C42.953 38.3357 42.219 38.5714 41.2524 38.5714ZM41.1235 36.1929C40.5721 36.1929 40.0781 36.0786 39.6413 35.85C39.2116 35.6143 38.8679 35.2893 38.6102 34.875C38.3595 34.4607 38.2342 33.9822 38.2342 33.4393C38.2342 32.8893 38.3595 32.4107 38.6102 32.0036C38.8679 31.5893 39.2116 31.2679 39.6413 31.0393C40.0781 30.8107 40.5721 30.6964 41.1235 30.6964C41.6104 30.6964 42.0543 30.7964 42.4553 30.9964C42.8563 31.1893 43.175 31.4893 43.4113 31.8964C43.6547 32.3036 43.7764 32.8179 43.7764 33.4393C43.7764 34.0536 43.6547 34.5643 43.4113 34.9714C43.175 35.3786 42.8563 35.6857 42.4553 35.8929C42.0543 36.0929 41.6104 36.1929 41.1235 36.1929ZM41.2416 35.2929C41.6211 35.2929 41.9577 35.2143 42.2513 35.0572C42.5448 34.9 42.774 34.6822 42.9387 34.4036C43.1105 34.125 43.1964 33.8036 43.1964 33.4393C43.1964 33.075 43.1105 32.7536 42.9387 32.475C42.774 32.1964 42.5448 31.9822 42.2513 31.8322C41.9577 31.675 41.6211 31.5964 41.2416 31.5964C40.8621 31.5964 40.522 31.675 40.2213 31.8322C39.9277 31.9822 39.695 32.1964 39.5231 32.475C39.3584 32.7536 39.2761 33.075 39.2761 33.4393C39.2761 33.8036 39.3584 34.125 39.5231 34.4036C39.695 34.6822 39.9277 34.9 40.2213 35.0572C40.522 35.2143 40.8621 35.2929 41.2416 35.2929ZM45.9615 36.4286V30.75H46.9496V32.2929L46.853 31.9072C47.0105 31.5143 47.2754 31.2143 47.6478 31.0072C48.0201 30.8 48.4784 30.6964 49.0226 30.6964V31.6929C48.9796 31.6857 48.9367 31.6822 48.8937 31.6822C48.8579 31.6822 48.8221 31.6822 48.7863 31.6822C48.2349 31.6822 47.7981 31.8464 47.4759 32.175C47.1537 32.5036 46.9926 32.9786 46.9926 33.6V36.4286H45.9615ZM52.5609 36.4929C51.9523 36.4929 51.4153 36.3679 50.9498 36.1179C50.4916 35.8679 50.1335 35.525 49.8758 35.0893C49.6251 34.6536 49.4998 34.1536 49.4998 33.5893C49.4998 33.025 49.6216 32.525 49.865 32.0893C50.1156 31.6536 50.4558 31.3143 50.8854 31.0714C51.3222 30.8214 51.8127 30.6964 52.3569 30.6964C52.9082 30.6964 53.3951 30.8179 53.8176 31.0607C54.2401 31.3036 54.5695 31.6464 54.8058 32.0893C55.0492 32.525 55.1709 33.0357 55.1709 33.6214C55.1709 33.6643 55.1674 33.7143 55.1602 33.7714C55.1602 33.8286 55.1566 33.8822 55.1495 33.9322H50.3054V33.1929H54.6124L54.1935 33.45C54.2007 33.0857 54.1255 32.7607 53.968 32.475C53.8104 32.1893 53.5921 31.9679 53.3128 31.8107C53.0407 31.6464 52.7221 31.5643 52.3569 31.5643C51.9988 31.5643 51.6802 31.6464 51.4009 31.8107C51.1217 31.9679 50.9033 32.1929 50.7458 32.4857C50.5882 32.7714 50.5095 33.1 50.5095 33.4714V33.6429C50.5095 34.0214 50.5954 34.3607 50.7672 34.6607C50.9463 34.9536 51.1933 35.1822 51.5083 35.3464C51.8234 35.5107 52.185 35.5929 52.5932 35.5929C52.9297 35.5929 53.234 35.5357 53.5061 35.4214C53.7854 35.3072 54.0288 35.1357 54.2365 34.9072L54.8058 35.5714C54.548 35.8714 54.2258 36.1 53.8391 36.2572C53.4596 36.4143 53.0335 36.4929 52.5609 36.4929ZM58.7404 36.4929C58.1891 36.4929 57.695 36.3714 57.2582 36.1286C56.8286 35.8857 56.4885 35.5464 56.2379 35.1107C55.9872 34.675 55.8619 34.1679 55.8619 33.5893C55.8619 33.0107 55.9872 32.5072 56.2379 32.0786C56.4885 31.6429 56.8286 31.3036 57.2582 31.0607C57.695 30.8179 58.1891 30.6964 58.7404 30.6964C59.2202 30.6964 59.6534 30.8036 60.0401 31.0179C60.4267 31.2322 60.7346 31.5536 60.9638 31.9822C61.2001 32.4107 61.3182 32.9464 61.3182 33.5893C61.3182 34.2322 61.2037 34.7679 60.9745 35.1964C60.7525 35.625 60.4482 35.95 60.0616 36.1714C59.6749 36.3857 59.2345 36.4929 58.7404 36.4929ZM58.8264 35.5929C59.1844 35.5929 59.5066 35.5107 59.793 35.3464C60.0866 35.1822 60.3158 34.95 60.4804 34.65C60.6523 34.3429 60.7382 33.9893 60.7382 33.5893C60.7382 33.1822 60.6523 32.8322 60.4804 32.5393C60.3158 32.2393 60.0866 32.0072 59.793 31.8429C59.5066 31.6786 59.1844 31.5964 58.8264 31.5964C58.4612 31.5964 58.1354 31.6786 57.849 31.8429C57.5625 32.0072 57.3334 32.2393 57.1616 32.5393C56.9897 32.8322 56.9038 33.1822 56.9038 33.5893C56.9038 33.9893 56.9897 34.3429 57.1616 34.65C57.3334 34.95 57.5625 35.1822 57.849 35.3464C58.1354 35.5107 58.4612 35.5929 58.8264 35.5929ZM60.7704 36.4286V34.8964L60.8349 33.5786L60.7275 32.2607V28.4786H61.7586V36.4286H60.7704ZM63.4947 36.4286V30.75H64.5258V36.4286H63.4947ZM64.0102 29.6572C63.8097 29.6572 63.6414 29.5929 63.5054 29.4643C63.3765 29.3357 63.3121 29.1786 63.3121 28.9929C63.3121 28.8 63.3765 28.6393 63.5054 28.5107C63.6414 28.3822 63.8097 28.3179 64.0102 28.3179C64.2107 28.3179 64.3754 28.3822 64.5043 28.5107C64.6403 28.6322 64.7084 28.7857 64.7084 28.9714C64.7084 29.1643 64.6439 29.3286 64.515 29.4643C64.3861 29.5929 64.2179 29.6572 64.0102 29.6572ZM68.8145 36.4929C68.2059 36.4929 67.6689 36.3679 67.2034 36.1179C66.7452 35.8679 66.3871 35.525 66.1294 35.0893C65.8787 34.6536 65.7534 34.1536 65.7534 33.5893C65.7534 33.025 65.8752 32.525 66.1186 32.0893C66.3692 31.6536 66.7094 31.3143 67.139 31.0714C67.5758 30.8214 68.0663 30.6964 68.6105 30.6964C69.1618 30.6964 69.6487 30.8179 70.0712 31.0607C70.4937 31.3036 70.8231 31.6464 71.0594 32.0893C71.3028 32.525 71.4245 33.0357 71.4245 33.6214C71.4245 33.6643 71.421 33.7143 71.4138 33.7714C71.4138 33.8286 71.4102 33.8822 71.4031 33.9322H66.559V33.1929H70.866L70.4471 33.45C70.4543 33.0857 70.3791 32.7607 70.2216 32.475C70.0641 32.1893 69.8457 31.9679 69.5664 31.8107C69.2943 31.6464 68.9757 31.5643 68.6105 31.5643C68.2524 31.5643 67.9338 31.6464 67.6545 31.8107C67.3753 31.9679 67.1569 32.1929 66.9994 32.4857C66.8418 32.7714 66.7631 33.1 66.7631 33.4714V33.6429C66.7631 34.0214 66.849 34.3607 67.0208 34.6607C67.1999 34.9536 67.4469 35.1822 67.762 35.3464C68.077 35.5107 68.4386 35.5929 68.8468 35.5929C69.1833 35.5929 69.4876 35.5357 69.7597 35.4214C70.039 35.3072 70.2824 35.1357 70.4901 34.9072L71.0594 35.5714C70.8016 35.8714 70.4794 36.1 70.0927 36.2572C69.7132 36.4143 69.2871 36.4929 68.8145 36.4929ZM75.6811 30.6964C76.1465 30.6964 76.5547 30.7857 76.9055 30.9643C77.2636 31.1429 77.5428 31.4143 77.7433 31.7786C77.9438 32.1429 78.0441 32.6036 78.0441 33.1607V36.4286H77.013V33.2786C77.013 32.7286 76.8769 32.3143 76.6048 32.0357C76.3399 31.7572 75.9639 31.6179 75.477 31.6179C75.1118 31.6179 74.7932 31.6893 74.5211 31.8322C74.249 31.975 74.0378 32.1857 73.8874 32.4643C73.7442 32.7429 73.6726 33.0893 73.6726 33.5036V36.4286H72.6415V30.75H73.6296V32.2822L73.4685 31.875C73.6547 31.5036 73.9411 31.2143 74.3278 31.0072C74.7144 30.8 75.1655 30.6964 75.6811 30.6964ZM81.6923 36.4929C81.1195 36.4929 80.6755 36.3393 80.3605 36.0322C80.0454 35.725 79.8879 35.2857 79.8879 34.7143V29.5072H80.919V34.6714C80.919 34.9786 80.9942 35.2143 81.1446 35.3786C81.3021 35.5429 81.5241 35.625 81.8105 35.625C82.1327 35.625 82.4012 35.5357 82.616 35.3572L82.9383 36.0964C82.7807 36.2322 82.591 36.3322 82.369 36.3964C82.1542 36.4607 81.9286 36.4929 81.6923 36.4929ZM78.9212 31.5964V30.75H82.5516V31.5964H78.9212ZM85.6027 36.4929C85.1301 36.4929 84.679 36.4286 84.2493 36.3C83.8269 36.1714 83.4939 36.0143 83.2505 35.8286L83.6801 35.0143C83.9235 35.1786 84.2243 35.3179 84.5823 35.4322C84.9403 35.5464 85.3055 35.6036 85.6779 35.6036C86.1576 35.6036 86.5013 35.5357 86.709 35.4C86.9238 35.2643 87.0312 35.075 87.0312 34.8322C87.0312 34.6536 86.9668 34.5143 86.8379 34.4143C86.709 34.3143 86.5371 34.2393 86.3223 34.1893C86.1147 34.1393 85.8819 34.0964 85.6242 34.0607C85.3664 34.0179 85.1086 33.9679 84.8508 33.9107C84.593 33.8464 84.3568 33.7607 84.1419 33.6536C83.9271 33.5393 83.7553 33.3857 83.6264 33.1929C83.4975 32.9929 83.4331 32.7286 83.4331 32.4C83.4331 32.0572 83.5297 31.7572 83.7231 31.5C83.9164 31.2429 84.1885 31.0464 84.5393 30.9107C84.8974 30.7679 85.3198 30.6964 85.8068 30.6964C86.1791 30.6964 86.555 30.7429 86.9345 30.8357C87.3212 30.9214 87.6363 31.0464 87.8797 31.2107L87.4393 32.025C87.1816 31.8536 86.9131 31.7357 86.6338 31.6714C86.3545 31.6072 86.0753 31.575 85.796 31.575C85.3449 31.575 85.0084 31.65 84.7864 31.8C84.5644 31.9429 84.4534 32.1286 84.4534 32.3572C84.4534 32.55 84.5179 32.7 84.6468 32.8072C84.7828 32.9072 84.9547 32.9857 85.1623 33.0429C85.3771 33.1 85.6134 33.15 85.8712 33.1929C86.129 33.2286 86.3868 33.2786 86.6445 33.3429C86.9023 33.4 87.135 33.4822 87.3427 33.5893C87.5575 33.6964 87.7293 33.8464 87.8582 34.0393C87.9943 34.2322 88.0623 34.4893 88.0623 34.8107C88.0623 35.1536 87.9621 35.45 87.7616 35.7C87.5611 35.95 87.2782 36.1464 86.9131 36.2893C86.5479 36.425 86.1111 36.4929 85.6027 36.4929Z" fill="#CCE981"/>
</svg>
